G04 (created by PCBNEW-RS274X (2012-01-19 BZR 3256)-stable) date 1/24/2013 6:42:34 AM*
G01*
G70*
G90*
%MOIN*%
G04 Gerber Fmt 3.4, Leading zero omitted, Abs format*
%FSLAX34Y34*%
G04 APERTURE LIST*
%ADD10C,0.006000*%
%ADD11C,0.012000*%
%ADD12C,0.000100*%
G04 APERTURE END LIST*
G54D10*
G54D11*
X59833Y-43783D02*
X59833Y-43317D01*
X59833Y-43383D02*
X59809Y-43350D01*
X59762Y-43317D01*
X59690Y-43317D01*
X59642Y-43350D01*
X59619Y-43417D01*
X59619Y-43783D01*
X59619Y-43417D02*
X59595Y-43350D01*
X59547Y-43317D01*
X59476Y-43317D01*
X59428Y-43350D01*
X59404Y-43417D01*
X59404Y-43783D01*
X58952Y-43783D02*
X58952Y-43417D01*
X58975Y-43350D01*
X59023Y-43317D01*
X59118Y-43317D01*
X59166Y-43350D01*
X58952Y-43750D02*
X58999Y-43783D01*
X59118Y-43783D01*
X59166Y-43750D01*
X59190Y-43683D01*
X59190Y-43617D01*
X59166Y-43550D01*
X59118Y-43517D01*
X58999Y-43517D01*
X58952Y-43483D01*
X58500Y-43783D02*
X58500Y-43083D01*
X58500Y-43750D02*
X58547Y-43783D01*
X58643Y-43783D01*
X58690Y-43750D01*
X58714Y-43717D01*
X58738Y-43650D01*
X58738Y-43450D01*
X58714Y-43383D01*
X58690Y-43350D01*
X58643Y-43317D01*
X58547Y-43317D01*
X58500Y-43350D01*
X58071Y-43750D02*
X58119Y-43783D01*
X58214Y-43783D01*
X58262Y-43750D01*
X58286Y-43683D01*
X58286Y-43417D01*
X58262Y-43350D01*
X58214Y-43317D01*
X58119Y-43317D01*
X58071Y-43350D01*
X58048Y-43417D01*
X58048Y-43483D01*
X58286Y-43550D01*
X57452Y-43783D02*
X57452Y-43317D01*
X57452Y-43083D02*
X57476Y-43117D01*
X57452Y-43150D01*
X57428Y-43117D01*
X57452Y-43083D01*
X57452Y-43150D01*
X57214Y-43317D02*
X57214Y-43783D01*
X57214Y-43383D02*
X57190Y-43350D01*
X57143Y-43317D01*
X57071Y-43317D01*
X57023Y-43350D01*
X57000Y-43417D01*
X57000Y-43783D01*
X56167Y-43783D02*
X56167Y-43083D01*
X56167Y-43750D02*
X56214Y-43783D01*
X56310Y-43783D01*
X56357Y-43750D01*
X56381Y-43717D01*
X56405Y-43650D01*
X56405Y-43450D01*
X56381Y-43383D01*
X56357Y-43350D01*
X56310Y-43317D01*
X56214Y-43317D01*
X56167Y-43350D01*
X55738Y-43750D02*
X55786Y-43783D01*
X55881Y-43783D01*
X55929Y-43750D01*
X55953Y-43683D01*
X55953Y-43417D01*
X55929Y-43350D01*
X55881Y-43317D01*
X55786Y-43317D01*
X55738Y-43350D01*
X55715Y-43417D01*
X55715Y-43483D01*
X55953Y-43550D01*
X55571Y-43317D02*
X55381Y-43317D01*
X55500Y-43083D02*
X55500Y-43683D01*
X55476Y-43750D01*
X55429Y-43783D01*
X55381Y-43783D01*
X55214Y-43783D02*
X55214Y-43317D01*
X55214Y-43450D02*
X55190Y-43383D01*
X55166Y-43350D01*
X55119Y-43317D01*
X55071Y-43317D01*
X54833Y-43783D02*
X54880Y-43750D01*
X54904Y-43717D01*
X54928Y-43650D01*
X54928Y-43450D01*
X54904Y-43383D01*
X54880Y-43350D01*
X54833Y-43317D01*
X54761Y-43317D01*
X54713Y-43350D01*
X54690Y-43383D01*
X54666Y-43450D01*
X54666Y-43650D01*
X54690Y-43717D01*
X54713Y-43750D01*
X54761Y-43783D01*
X54833Y-43783D01*
X54452Y-43783D02*
X54452Y-43317D01*
X54452Y-43083D02*
X54476Y-43117D01*
X54452Y-43150D01*
X54428Y-43117D01*
X54452Y-43083D01*
X54452Y-43150D01*
X54285Y-43317D02*
X54095Y-43317D01*
X54214Y-43083D02*
X54214Y-43683D01*
X54190Y-43750D01*
X54143Y-43783D01*
X54095Y-43783D01*
G54D12*
G36*
X51933Y-40579D02*
X51930Y-40670D01*
X51909Y-40715D01*
X51900Y-40718D01*
X51900Y-40581D01*
X51881Y-40490D01*
X51821Y-40444D01*
X51731Y-40433D01*
X51671Y-40404D01*
X51616Y-40332D01*
X51584Y-40260D01*
X51588Y-40207D01*
X51629Y-40139D01*
X51636Y-40129D01*
X51708Y-40027D01*
X51624Y-39943D01*
X51540Y-39859D01*
X51441Y-39932D01*
X51370Y-39979D01*
X51318Y-39986D01*
X51249Y-39958D01*
X51241Y-39954D01*
X51157Y-39885D01*
X51119Y-39784D01*
X51097Y-39705D01*
X51058Y-39672D01*
X50984Y-39666D01*
X50911Y-39672D01*
X50874Y-39702D01*
X50854Y-39776D01*
X50850Y-39797D01*
X50807Y-39911D01*
X50731Y-39969D01*
X50628Y-39968D01*
X50536Y-39925D01*
X50430Y-39858D01*
X50348Y-39934D01*
X50267Y-40010D01*
X50337Y-40123D01*
X50380Y-40206D01*
X50386Y-40271D01*
X50367Y-40330D01*
X50323Y-40399D01*
X50247Y-40436D01*
X50197Y-40446D01*
X50113Y-40464D01*
X50075Y-40496D01*
X50066Y-40560D01*
X50066Y-40579D01*
X50072Y-40653D01*
X50104Y-40690D01*
X50180Y-40709D01*
X50192Y-40711D01*
X50284Y-40737D01*
X50336Y-40789D01*
X50358Y-40838D01*
X50380Y-40920D01*
X50366Y-40989D01*
X50333Y-41049D01*
X50293Y-41120D01*
X50288Y-41163D01*
X50322Y-41207D01*
X50341Y-41227D01*
X50396Y-41279D01*
X50433Y-41293D01*
X50481Y-41270D01*
X50533Y-41233D01*
X50610Y-41192D01*
X50671Y-41183D01*
X50675Y-41185D01*
X50714Y-41174D01*
X50758Y-41109D01*
X50798Y-41021D01*
X50872Y-40838D01*
X50802Y-40769D01*
X50735Y-40660D01*
X50727Y-40541D01*
X50777Y-40427D01*
X50826Y-40375D01*
X50938Y-40311D01*
X51044Y-40313D01*
X51152Y-40381D01*
X51169Y-40397D01*
X51247Y-40508D01*
X51259Y-40619D01*
X51205Y-40734D01*
X51188Y-40755D01*
X51110Y-40850D01*
X51189Y-41028D01*
X51241Y-41133D01*
X51284Y-41182D01*
X51320Y-41186D01*
X51380Y-41191D01*
X51455Y-41231D01*
X51459Y-41234D01*
X51545Y-41302D01*
X51626Y-41222D01*
X51678Y-41164D01*
X51686Y-41121D01*
X51654Y-41061D01*
X51648Y-41053D01*
X51606Y-40939D01*
X51624Y-40834D01*
X51695Y-40753D01*
X51776Y-40719D01*
X51857Y-40692D01*
X51892Y-40652D01*
X51900Y-40581D01*
X51900Y-40718D01*
X51854Y-40736D01*
X51802Y-40745D01*
X51713Y-40767D01*
X51669Y-40807D01*
X51650Y-40865D01*
X51653Y-40988D01*
X51688Y-41065D01*
X51724Y-41134D01*
X51724Y-41180D01*
X51682Y-41232D01*
X51660Y-41254D01*
X51572Y-41342D01*
X51461Y-41276D01*
X51375Y-41236D01*
X51306Y-41222D01*
X51296Y-41223D01*
X51254Y-41209D01*
X51206Y-41142D01*
X51159Y-41043D01*
X51075Y-40850D01*
X51154Y-40755D01*
X51221Y-40638D01*
X51221Y-40525D01*
X51155Y-40419D01*
X51151Y-40415D01*
X51053Y-40346D01*
X50957Y-40344D01*
X50854Y-40407D01*
X50853Y-40408D01*
X50775Y-40513D01*
X50759Y-40624D01*
X50806Y-40729D01*
X50837Y-40762D01*
X50907Y-40828D01*
X50828Y-41032D01*
X50780Y-41145D01*
X50741Y-41206D01*
X50702Y-41227D01*
X50682Y-41227D01*
X50607Y-41239D01*
X50533Y-41275D01*
X50468Y-41318D01*
X50423Y-41325D01*
X50374Y-41292D01*
X50319Y-41236D01*
X50226Y-41139D01*
X50298Y-41042D01*
X50344Y-40968D01*
X50349Y-40909D01*
X50329Y-40855D01*
X50266Y-40777D01*
X50202Y-40746D01*
X50103Y-40721D01*
X50053Y-40691D01*
X50035Y-40640D01*
X50033Y-40585D01*
X50057Y-40478D01*
X50130Y-40416D01*
X50231Y-40400D01*
X50303Y-40373D01*
X50340Y-40304D01*
X50338Y-40209D01*
X50301Y-40118D01*
X50234Y-40011D01*
X50332Y-39917D01*
X50429Y-39824D01*
X50536Y-39892D01*
X50647Y-39936D01*
X50737Y-39918D01*
X50800Y-39839D01*
X50823Y-39770D01*
X50847Y-39693D01*
X50886Y-39656D01*
X50964Y-39641D01*
X50989Y-39639D01*
X51077Y-39636D01*
X51120Y-39655D01*
X51140Y-39713D01*
X51148Y-39760D01*
X51190Y-39877D01*
X51261Y-39938D01*
X51354Y-39940D01*
X51432Y-39900D01*
X51515Y-39848D01*
X51572Y-39841D01*
X51628Y-39881D01*
X51660Y-39916D01*
X51715Y-39987D01*
X51726Y-40039D01*
X51692Y-40100D01*
X51669Y-40130D01*
X51624Y-40230D01*
X51640Y-40318D01*
X51712Y-40384D01*
X51801Y-40413D01*
X51883Y-40429D01*
X51921Y-40458D01*
X51932Y-40521D01*
X51933Y-40579D01*
X51933Y-40579D01*
X51933Y-40579D01*
G37*
G36*
X64427Y-40665D02*
X64426Y-40856D01*
X64417Y-41517D01*
X64317Y-41517D01*
X64217Y-41517D01*
X64207Y-41158D01*
X64201Y-40994D01*
X64192Y-40886D01*
X64178Y-40825D01*
X64159Y-40801D01*
X64150Y-40800D01*
X64128Y-40813D01*
X64112Y-40860D01*
X64102Y-40950D01*
X64095Y-41093D01*
X64093Y-41158D01*
X64083Y-41517D01*
X63983Y-41517D01*
X63899Y-41517D01*
X63899Y-40063D01*
X63876Y-40034D01*
X63868Y-40033D01*
X63828Y-40058D01*
X63785Y-40107D01*
X63739Y-40189D01*
X63739Y-40230D01*
X63779Y-40223D01*
X63839Y-40178D01*
X63885Y-40118D01*
X63899Y-40063D01*
X63899Y-41517D01*
X63883Y-41517D01*
X63874Y-41158D01*
X63868Y-40994D01*
X63859Y-40886D01*
X63845Y-40825D01*
X63825Y-40801D01*
X63817Y-40800D01*
X63794Y-40813D01*
X63779Y-40860D01*
X63768Y-40950D01*
X63761Y-41093D01*
X63759Y-41158D01*
X63750Y-41517D01*
X63650Y-41517D01*
X63550Y-41517D01*
X63540Y-41158D01*
X63534Y-40994D01*
X63525Y-40886D01*
X63512Y-40825D01*
X63492Y-40801D01*
X63483Y-40800D01*
X63461Y-40813D01*
X63445Y-40860D01*
X63435Y-40950D01*
X63428Y-41093D01*
X63426Y-41158D01*
X63417Y-41517D01*
X63317Y-41517D01*
X63217Y-41517D01*
X63207Y-41158D01*
X63201Y-40994D01*
X63200Y-40982D01*
X63200Y-40207D01*
X63180Y-40156D01*
X63136Y-40093D01*
X63088Y-40044D01*
X63065Y-40033D01*
X63035Y-40055D01*
X63046Y-40110D01*
X63088Y-40172D01*
X63148Y-40222D01*
X63189Y-40230D01*
X63200Y-40207D01*
X63200Y-40982D01*
X63192Y-40886D01*
X63178Y-40825D01*
X63159Y-40801D01*
X63150Y-40800D01*
X63128Y-40813D01*
X63112Y-40860D01*
X63102Y-40950D01*
X63095Y-41093D01*
X63093Y-41158D01*
X63083Y-41517D01*
X62983Y-41517D01*
X62883Y-41517D01*
X62874Y-41158D01*
X62868Y-40994D01*
X62859Y-40886D01*
X62845Y-40825D01*
X62825Y-40801D01*
X62817Y-40800D01*
X62794Y-40813D01*
X62779Y-40860D01*
X62768Y-40950D01*
X62761Y-41093D01*
X62759Y-41158D01*
X62754Y-41317D01*
X62747Y-41421D01*
X62736Y-41482D01*
X62718Y-41513D01*
X62690Y-41525D01*
X62682Y-41526D01*
X62616Y-41524D01*
X62590Y-41512D01*
X62583Y-41473D01*
X62577Y-41378D01*
X62572Y-41236D01*
X62569Y-41058D01*
X62567Y-40854D01*
X62567Y-40786D01*
X62567Y-40550D01*
X62569Y-40370D01*
X62573Y-40236D01*
X62581Y-40137D01*
X62592Y-40063D01*
X62609Y-40002D01*
X62632Y-39945D01*
X62645Y-39916D01*
X62772Y-39712D01*
X62940Y-39560D01*
X63150Y-39460D01*
X63402Y-39411D01*
X63450Y-39407D01*
X63589Y-39402D01*
X63688Y-39408D01*
X63774Y-39430D01*
X63872Y-39474D01*
X63933Y-39506D01*
X64137Y-39645D01*
X64292Y-39825D01*
X64391Y-40038D01*
X64400Y-40067D01*
X64411Y-40145D01*
X64420Y-40278D01*
X64425Y-40455D01*
X64427Y-40665D01*
X64427Y-40665D01*
X64427Y-40665D01*
G37*
M02*
