G04 (created by PCBNEW-RS274X (2012-01-19 BZR 3256)-stable) date 1/24/2013 6:42:34 AM*
G01*
G70*
G90*
%MOIN*%
G04 Gerber Fmt 3.4, Leading zero omitted, Abs format*
%FSLAX34Y34*%
G04 APERTURE LIST*
%ADD10C,0.006000*%
%ADD11C,0.060000*%
%ADD12C,0.106300*%
%ADD13C,0.059100*%
%ADD14C,0.118100*%
%ADD15R,0.060000X0.060000*%
%ADD16C,0.008000*%
%ADD17C,0.010000*%
G04 APERTURE END LIST*
G54D10*
G54D11*
X53350Y-41000D03*
X53350Y-40000D03*
X52563Y-40000D03*
X52563Y-41000D03*
G54D12*
X51500Y-42862D03*
X51500Y-38138D03*
G54D13*
X61500Y-39100D03*
X61500Y-40100D03*
X61500Y-40900D03*
X61500Y-41900D03*
G54D14*
X62550Y-37900D03*
X62550Y-43300D03*
G54D15*
X57000Y-39000D03*
G54D11*
X58000Y-39000D03*
X57000Y-40000D03*
X58000Y-40000D03*
X57000Y-41000D03*
X58000Y-41000D03*
X57000Y-42000D03*
X58000Y-42000D03*
G54D16*
X56557Y-39000D02*
X55057Y-40500D01*
X57000Y-39000D02*
X56557Y-39000D01*
X53063Y-40500D02*
X52563Y-41000D01*
X55057Y-40500D02*
X53063Y-40500D01*
G54D10*
G36*
X64950Y-44450D02*
X63390Y-44450D01*
X63390Y-43468D01*
X63390Y-43134D01*
X63390Y-38068D01*
X63390Y-37734D01*
X63263Y-37425D01*
X63027Y-37189D01*
X62718Y-37060D01*
X62384Y-37060D01*
X62075Y-37187D01*
X61839Y-37423D01*
X61710Y-37732D01*
X61710Y-38066D01*
X61837Y-38375D01*
X62073Y-38611D01*
X62382Y-38740D01*
X62716Y-38740D01*
X63025Y-38613D01*
X63261Y-38377D01*
X63390Y-38068D01*
X63390Y-43134D01*
X63263Y-42825D01*
X63027Y-42589D01*
X62718Y-42460D01*
X62384Y-42460D01*
X62075Y-42587D01*
X62044Y-42618D01*
X62044Y-42008D01*
X62044Y-41792D01*
X61961Y-41592D01*
X61808Y-41439D01*
X61714Y-41400D01*
X61808Y-41361D01*
X61961Y-41208D01*
X62044Y-41008D01*
X62044Y-40792D01*
X61961Y-40592D01*
X61869Y-40500D01*
X61961Y-40408D01*
X62044Y-40208D01*
X62044Y-39992D01*
X61961Y-39792D01*
X61808Y-39639D01*
X61714Y-39600D01*
X61808Y-39561D01*
X61961Y-39408D01*
X62044Y-39208D01*
X62044Y-38992D01*
X61961Y-38792D01*
X61808Y-38639D01*
X61608Y-38556D01*
X61392Y-38556D01*
X61192Y-38639D01*
X61039Y-38792D01*
X60956Y-38992D01*
X60956Y-39208D01*
X61039Y-39408D01*
X61192Y-39561D01*
X61285Y-39600D01*
X61192Y-39639D01*
X61039Y-39792D01*
X60956Y-39992D01*
X60956Y-40208D01*
X61039Y-40408D01*
X61131Y-40500D01*
X61039Y-40592D01*
X60956Y-40792D01*
X60956Y-41008D01*
X61039Y-41208D01*
X61192Y-41361D01*
X61285Y-41400D01*
X61192Y-41439D01*
X61039Y-41592D01*
X60956Y-41792D01*
X60956Y-42008D01*
X61039Y-42208D01*
X61192Y-42361D01*
X61392Y-42444D01*
X61608Y-42444D01*
X61808Y-42361D01*
X61961Y-42208D01*
X62044Y-42008D01*
X62044Y-42618D01*
X61839Y-42823D01*
X61710Y-43132D01*
X61710Y-43466D01*
X61837Y-43775D01*
X62073Y-44011D01*
X62382Y-44140D01*
X62716Y-44140D01*
X63025Y-44013D01*
X63261Y-43777D01*
X63390Y-43468D01*
X63390Y-44450D01*
X58549Y-44450D01*
X58549Y-42109D01*
X58549Y-41891D01*
X58465Y-41689D01*
X58311Y-41535D01*
X58226Y-41500D01*
X58311Y-41465D01*
X58465Y-41311D01*
X58549Y-41109D01*
X58549Y-40891D01*
X58465Y-40689D01*
X58311Y-40535D01*
X58226Y-40500D01*
X58311Y-40465D01*
X58465Y-40311D01*
X58549Y-40109D01*
X58549Y-39891D01*
X58465Y-39689D01*
X58311Y-39535D01*
X58226Y-39500D01*
X58311Y-39465D01*
X58465Y-39311D01*
X58549Y-39109D01*
X58549Y-38891D01*
X58465Y-38689D01*
X58311Y-38535D01*
X58109Y-38451D01*
X57891Y-38451D01*
X57689Y-38535D01*
X57549Y-38674D01*
X57549Y-38651D01*
X57511Y-38559D01*
X57441Y-38489D01*
X57350Y-38451D01*
X57251Y-38451D01*
X57112Y-38450D01*
X57050Y-38512D01*
X57050Y-38900D01*
X57050Y-38950D01*
X57050Y-39050D01*
X56950Y-39050D01*
X56950Y-38950D01*
X56950Y-38512D01*
X56888Y-38450D01*
X56749Y-38451D01*
X56650Y-38451D01*
X56559Y-38489D01*
X56489Y-38559D01*
X56451Y-38651D01*
X56450Y-38888D01*
X56512Y-38950D01*
X56950Y-38950D01*
X56950Y-39050D01*
X56900Y-39050D01*
X56512Y-39050D01*
X56450Y-39112D01*
X56451Y-39349D01*
X56489Y-39441D01*
X56559Y-39511D01*
X56650Y-39549D01*
X56675Y-39549D01*
X56535Y-39689D01*
X56451Y-39891D01*
X56451Y-40109D01*
X56535Y-40311D01*
X56689Y-40465D01*
X56773Y-40500D01*
X56689Y-40535D01*
X56535Y-40689D01*
X56451Y-40891D01*
X56451Y-41109D01*
X56535Y-41311D01*
X56689Y-41465D01*
X56773Y-41500D01*
X56689Y-41535D01*
X56535Y-41689D01*
X56451Y-41891D01*
X56451Y-42109D01*
X56535Y-42311D01*
X56689Y-42465D01*
X56891Y-42549D01*
X57109Y-42549D01*
X57311Y-42465D01*
X57465Y-42311D01*
X57500Y-42226D01*
X57535Y-42311D01*
X57689Y-42465D01*
X57891Y-42549D01*
X58109Y-42549D01*
X58311Y-42465D01*
X58465Y-42311D01*
X58549Y-42109D01*
X58549Y-44450D01*
X53899Y-44450D01*
X53899Y-41109D01*
X53899Y-40891D01*
X53815Y-40689D01*
X53661Y-40535D01*
X53576Y-40500D01*
X53661Y-40465D01*
X53815Y-40311D01*
X53899Y-40109D01*
X53899Y-39891D01*
X53815Y-39689D01*
X53661Y-39535D01*
X53459Y-39451D01*
X53241Y-39451D01*
X53039Y-39535D01*
X52956Y-39617D01*
X52874Y-39535D01*
X52672Y-39451D01*
X52454Y-39451D01*
X52281Y-39522D01*
X52281Y-38294D01*
X52281Y-37983D01*
X52162Y-37696D01*
X51943Y-37476D01*
X51656Y-37357D01*
X51345Y-37357D01*
X51058Y-37476D01*
X50838Y-37695D01*
X50719Y-37982D01*
X50719Y-38293D01*
X50838Y-38580D01*
X51057Y-38800D01*
X51344Y-38919D01*
X51655Y-38919D01*
X51942Y-38800D01*
X52162Y-38581D01*
X52281Y-38294D01*
X52281Y-39522D01*
X52252Y-39535D01*
X52098Y-39689D01*
X52014Y-39891D01*
X52014Y-40109D01*
X52098Y-40311D01*
X52252Y-40465D01*
X52343Y-40502D01*
X52282Y-40528D01*
X52255Y-40622D01*
X52563Y-40929D01*
X52871Y-40622D01*
X52844Y-40528D01*
X52778Y-40504D01*
X52874Y-40465D01*
X52956Y-40382D01*
X53039Y-40465D01*
X53123Y-40500D01*
X53039Y-40535D01*
X52885Y-40689D01*
X52842Y-40790D01*
X52634Y-41000D01*
X52842Y-41209D01*
X52885Y-41311D01*
X53039Y-41465D01*
X53241Y-41549D01*
X53459Y-41549D01*
X53661Y-41465D01*
X53815Y-41311D01*
X53899Y-41109D01*
X53899Y-44450D01*
X52871Y-44450D01*
X52871Y-41378D01*
X52563Y-41071D01*
X52492Y-41141D01*
X52492Y-41000D01*
X52185Y-40692D01*
X52091Y-40719D01*
X52020Y-40921D01*
X52031Y-41134D01*
X52091Y-41281D01*
X52185Y-41308D01*
X52492Y-41000D01*
X52492Y-41141D01*
X52255Y-41378D01*
X52282Y-41472D01*
X52484Y-41543D01*
X52697Y-41532D01*
X52844Y-41472D01*
X52871Y-41378D01*
X52871Y-44450D01*
X52281Y-44450D01*
X52281Y-43018D01*
X52281Y-42707D01*
X52162Y-42420D01*
X51943Y-42200D01*
X51656Y-42081D01*
X51345Y-42081D01*
X51058Y-42200D01*
X50838Y-42419D01*
X50719Y-42706D01*
X50719Y-43017D01*
X50838Y-43304D01*
X51057Y-43524D01*
X51344Y-43643D01*
X51655Y-43643D01*
X51942Y-43524D01*
X52162Y-43305D01*
X52281Y-43018D01*
X52281Y-44450D01*
X49550Y-44450D01*
X49550Y-36550D01*
X64950Y-36550D01*
X64950Y-44450D01*
X64950Y-44450D01*
G37*
G54D17*
X64950Y-44450D02*
X63390Y-44450D01*
X63390Y-43468D01*
X63390Y-43134D01*
X63390Y-38068D01*
X63390Y-37734D01*
X63263Y-37425D01*
X63027Y-37189D01*
X62718Y-37060D01*
X62384Y-37060D01*
X62075Y-37187D01*
X61839Y-37423D01*
X61710Y-37732D01*
X61710Y-38066D01*
X61837Y-38375D01*
X62073Y-38611D01*
X62382Y-38740D01*
X62716Y-38740D01*
X63025Y-38613D01*
X63261Y-38377D01*
X63390Y-38068D01*
X63390Y-43134D01*
X63263Y-42825D01*
X63027Y-42589D01*
X62718Y-42460D01*
X62384Y-42460D01*
X62075Y-42587D01*
X62044Y-42618D01*
X62044Y-42008D01*
X62044Y-41792D01*
X61961Y-41592D01*
X61808Y-41439D01*
X61714Y-41400D01*
X61808Y-41361D01*
X61961Y-41208D01*
X62044Y-41008D01*
X62044Y-40792D01*
X61961Y-40592D01*
X61869Y-40500D01*
X61961Y-40408D01*
X62044Y-40208D01*
X62044Y-39992D01*
X61961Y-39792D01*
X61808Y-39639D01*
X61714Y-39600D01*
X61808Y-39561D01*
X61961Y-39408D01*
X62044Y-39208D01*
X62044Y-38992D01*
X61961Y-38792D01*
X61808Y-38639D01*
X61608Y-38556D01*
X61392Y-38556D01*
X61192Y-38639D01*
X61039Y-38792D01*
X60956Y-38992D01*
X60956Y-39208D01*
X61039Y-39408D01*
X61192Y-39561D01*
X61285Y-39600D01*
X61192Y-39639D01*
X61039Y-39792D01*
X60956Y-39992D01*
X60956Y-40208D01*
X61039Y-40408D01*
X61131Y-40500D01*
X61039Y-40592D01*
X60956Y-40792D01*
X60956Y-41008D01*
X61039Y-41208D01*
X61192Y-41361D01*
X61285Y-41400D01*
X61192Y-41439D01*
X61039Y-41592D01*
X60956Y-41792D01*
X60956Y-42008D01*
X61039Y-42208D01*
X61192Y-42361D01*
X61392Y-42444D01*
X61608Y-42444D01*
X61808Y-42361D01*
X61961Y-42208D01*
X62044Y-42008D01*
X62044Y-42618D01*
X61839Y-42823D01*
X61710Y-43132D01*
X61710Y-43466D01*
X61837Y-43775D01*
X62073Y-44011D01*
X62382Y-44140D01*
X62716Y-44140D01*
X63025Y-44013D01*
X63261Y-43777D01*
X63390Y-43468D01*
X63390Y-44450D01*
X58549Y-44450D01*
X58549Y-42109D01*
X58549Y-41891D01*
X58465Y-41689D01*
X58311Y-41535D01*
X58226Y-41500D01*
X58311Y-41465D01*
X58465Y-41311D01*
X58549Y-41109D01*
X58549Y-40891D01*
X58465Y-40689D01*
X58311Y-40535D01*
X58226Y-40500D01*
X58311Y-40465D01*
X58465Y-40311D01*
X58549Y-40109D01*
X58549Y-39891D01*
X58465Y-39689D01*
X58311Y-39535D01*
X58226Y-39500D01*
X58311Y-39465D01*
X58465Y-39311D01*
X58549Y-39109D01*
X58549Y-38891D01*
X58465Y-38689D01*
X58311Y-38535D01*
X58109Y-38451D01*
X57891Y-38451D01*
X57689Y-38535D01*
X57549Y-38674D01*
X57549Y-38651D01*
X57511Y-38559D01*
X57441Y-38489D01*
X57350Y-38451D01*
X57251Y-38451D01*
X57112Y-38450D01*
X57050Y-38512D01*
X57050Y-38900D01*
X57050Y-38950D01*
X57050Y-39050D01*
X56950Y-39050D01*
X56950Y-38950D01*
X56950Y-38512D01*
X56888Y-38450D01*
X56749Y-38451D01*
X56650Y-38451D01*
X56559Y-38489D01*
X56489Y-38559D01*
X56451Y-38651D01*
X56450Y-38888D01*
X56512Y-38950D01*
X56950Y-38950D01*
X56950Y-39050D01*
X56900Y-39050D01*
X56512Y-39050D01*
X56450Y-39112D01*
X56451Y-39349D01*
X56489Y-39441D01*
X56559Y-39511D01*
X56650Y-39549D01*
X56675Y-39549D01*
X56535Y-39689D01*
X56451Y-39891D01*
X56451Y-40109D01*
X56535Y-40311D01*
X56689Y-40465D01*
X56773Y-40500D01*
X56689Y-40535D01*
X56535Y-40689D01*
X56451Y-40891D01*
X56451Y-41109D01*
X56535Y-41311D01*
X56689Y-41465D01*
X56773Y-41500D01*
X56689Y-41535D01*
X56535Y-41689D01*
X56451Y-41891D01*
X56451Y-42109D01*
X56535Y-42311D01*
X56689Y-42465D01*
X56891Y-42549D01*
X57109Y-42549D01*
X57311Y-42465D01*
X57465Y-42311D01*
X57500Y-42226D01*
X57535Y-42311D01*
X57689Y-42465D01*
X57891Y-42549D01*
X58109Y-42549D01*
X58311Y-42465D01*
X58465Y-42311D01*
X58549Y-42109D01*
X58549Y-44450D01*
X53899Y-44450D01*
X53899Y-41109D01*
X53899Y-40891D01*
X53815Y-40689D01*
X53661Y-40535D01*
X53576Y-40500D01*
X53661Y-40465D01*
X53815Y-40311D01*
X53899Y-40109D01*
X53899Y-39891D01*
X53815Y-39689D01*
X53661Y-39535D01*
X53459Y-39451D01*
X53241Y-39451D01*
X53039Y-39535D01*
X52956Y-39617D01*
X52874Y-39535D01*
X52672Y-39451D01*
X52454Y-39451D01*
X52281Y-39522D01*
X52281Y-38294D01*
X52281Y-37983D01*
X52162Y-37696D01*
X51943Y-37476D01*
X51656Y-37357D01*
X51345Y-37357D01*
X51058Y-37476D01*
X50838Y-37695D01*
X50719Y-37982D01*
X50719Y-38293D01*
X50838Y-38580D01*
X51057Y-38800D01*
X51344Y-38919D01*
X51655Y-38919D01*
X51942Y-38800D01*
X52162Y-38581D01*
X52281Y-38294D01*
X52281Y-39522D01*
X52252Y-39535D01*
X52098Y-39689D01*
X52014Y-39891D01*
X52014Y-40109D01*
X52098Y-40311D01*
X52252Y-40465D01*
X52343Y-40502D01*
X52282Y-40528D01*
X52255Y-40622D01*
X52563Y-40929D01*
X52871Y-40622D01*
X52844Y-40528D01*
X52778Y-40504D01*
X52874Y-40465D01*
X52956Y-40382D01*
X53039Y-40465D01*
X53123Y-40500D01*
X53039Y-40535D01*
X52885Y-40689D01*
X52842Y-40790D01*
X52634Y-41000D01*
X52842Y-41209D01*
X52885Y-41311D01*
X53039Y-41465D01*
X53241Y-41549D01*
X53459Y-41549D01*
X53661Y-41465D01*
X53815Y-41311D01*
X53899Y-41109D01*
X53899Y-44450D01*
X52871Y-44450D01*
X52871Y-41378D01*
X52563Y-41071D01*
X52492Y-41141D01*
X52492Y-41000D01*
X52185Y-40692D01*
X52091Y-40719D01*
X52020Y-40921D01*
X52031Y-41134D01*
X52091Y-41281D01*
X52185Y-41308D01*
X52492Y-41000D01*
X52492Y-41141D01*
X52255Y-41378D01*
X52282Y-41472D01*
X52484Y-41543D01*
X52697Y-41532D01*
X52844Y-41472D01*
X52871Y-41378D01*
X52871Y-44450D01*
X52281Y-44450D01*
X52281Y-43018D01*
X52281Y-42707D01*
X52162Y-42420D01*
X51943Y-42200D01*
X51656Y-42081D01*
X51345Y-42081D01*
X51058Y-42200D01*
X50838Y-42419D01*
X50719Y-42706D01*
X50719Y-43017D01*
X50838Y-43304D01*
X51057Y-43524D01*
X51344Y-43643D01*
X51655Y-43643D01*
X51942Y-43524D01*
X52162Y-43305D01*
X52281Y-43018D01*
X52281Y-44450D01*
X49550Y-44450D01*
X49550Y-36550D01*
X64950Y-36550D01*
X64950Y-44450D01*
M02*
