M48
INCH,LZ
T1C0.032
T2C0.039
T3C0.040
T4C0.091
%
G90
G05
T1
X052563Y-04
X052563Y-041
X05335Y-04
X05335Y-041
T2
X0615Y-0391
X0615Y-0401
X0615Y-0409
X0615Y-0419
T3
X057Y-039
X057Y-04
X057Y-041
X057Y-042
X058Y-039
X058Y-04
X058Y-041
X058Y-042
T4
X0515Y-038138
X0515Y-042862
X06255Y-0379
X06255Y-0433
T0
M30
