G04 (created by PCBNEW-RS274X (2012-01-19 BZR 3256)-stable) date 1/24/2013 6:42:34 AM*
G01*
G70*
G90*
%MOIN*%
G04 Gerber Fmt 3.4, Leading zero omitted, Abs format*
%FSLAX34Y34*%
G04 APERTURE LIST*
%ADD10C,0.006000*%
%ADD11C,0.010000*%
%ADD12C,0.012000*%
%ADD13C,0.000100*%
%ADD14C,0.005000*%
G04 APERTURE END LIST*
G54D10*
G54D11*
X54843Y-41643D02*
X54976Y-42243D01*
X55110Y-41643D01*
X55243Y-42243D02*
X55243Y-41643D01*
X55243Y-41871D02*
X55281Y-41843D01*
X55358Y-41843D01*
X55396Y-41871D01*
X55415Y-41900D01*
X55434Y-41957D01*
X55434Y-42129D01*
X55415Y-42186D01*
X55396Y-42214D01*
X55358Y-42243D01*
X55281Y-42243D01*
X55243Y-42214D01*
X55777Y-41843D02*
X55777Y-42243D01*
X55605Y-41843D02*
X55605Y-42157D01*
X55624Y-42214D01*
X55662Y-42243D01*
X55720Y-42243D01*
X55758Y-42214D01*
X55777Y-42186D01*
X55948Y-42214D02*
X55986Y-42243D01*
X56062Y-42243D01*
X56101Y-42214D01*
X56120Y-42157D01*
X56120Y-42129D01*
X56101Y-42071D01*
X56062Y-42043D01*
X56005Y-42043D01*
X55967Y-42014D01*
X55948Y-41957D01*
X55948Y-41929D01*
X55967Y-41871D01*
X56005Y-41843D01*
X56062Y-41843D01*
X56101Y-41871D01*
X55148Y-41243D02*
X55148Y-40643D01*
X55243Y-40643D01*
X55301Y-40671D01*
X55339Y-40729D01*
X55358Y-40786D01*
X55377Y-40900D01*
X55377Y-40986D01*
X55358Y-41100D01*
X55339Y-41157D01*
X55301Y-41214D01*
X55243Y-41243D01*
X55148Y-41243D01*
X55548Y-41014D02*
X55853Y-41014D01*
X55148Y-40243D02*
X55148Y-39643D01*
X55243Y-39643D01*
X55301Y-39671D01*
X55339Y-39729D01*
X55358Y-39786D01*
X55377Y-39900D01*
X55377Y-39986D01*
X55358Y-40100D01*
X55339Y-40157D01*
X55301Y-40214D01*
X55243Y-40243D01*
X55148Y-40243D01*
X55548Y-40014D02*
X55853Y-40014D01*
X55701Y-40243D02*
X55701Y-39786D01*
X55196Y-38671D02*
X55158Y-38643D01*
X55101Y-38643D01*
X55043Y-38671D01*
X55005Y-38729D01*
X54986Y-38786D01*
X54967Y-38900D01*
X54967Y-38986D01*
X54986Y-39100D01*
X55005Y-39157D01*
X55043Y-39214D01*
X55101Y-39243D01*
X55139Y-39243D01*
X55196Y-39214D01*
X55215Y-39186D01*
X55215Y-38986D01*
X55139Y-38986D01*
X55386Y-39243D02*
X55386Y-38643D01*
X55615Y-39243D01*
X55615Y-38643D01*
X55805Y-39243D02*
X55805Y-38643D01*
X55900Y-38643D01*
X55958Y-38671D01*
X55996Y-38729D01*
X56015Y-38786D01*
X56034Y-38900D01*
X56034Y-38986D01*
X56015Y-39100D01*
X55996Y-39157D01*
X55958Y-39214D01*
X55900Y-39243D01*
X55805Y-39243D01*
G54D12*
X49500Y-44283D02*
X49500Y-43583D01*
X49714Y-44283D02*
X49714Y-43917D01*
X49691Y-43850D01*
X49643Y-43817D01*
X49571Y-43817D01*
X49524Y-43850D01*
X49500Y-43883D01*
X49881Y-43817D02*
X50071Y-43817D01*
X49952Y-43583D02*
X49952Y-44183D01*
X49976Y-44250D01*
X50023Y-44283D01*
X50071Y-44283D01*
X50167Y-43817D02*
X50357Y-43817D01*
X50238Y-43583D02*
X50238Y-44183D01*
X50262Y-44250D01*
X50309Y-44283D01*
X50357Y-44283D01*
X50524Y-43817D02*
X50524Y-44517D01*
X50524Y-43850D02*
X50572Y-43817D01*
X50667Y-43817D01*
X50715Y-43850D01*
X50738Y-43883D01*
X50762Y-43950D01*
X50762Y-44150D01*
X50738Y-44217D01*
X50715Y-44250D01*
X50667Y-44283D01*
X50572Y-44283D01*
X50524Y-44250D01*
X50976Y-44217D02*
X51000Y-44250D01*
X50976Y-44283D01*
X50952Y-44250D01*
X50976Y-44217D01*
X50976Y-44283D01*
X50976Y-43850D02*
X51000Y-43883D01*
X50976Y-43917D01*
X50952Y-43883D01*
X50976Y-43850D01*
X50976Y-43917D01*
X51571Y-43550D02*
X51143Y-44450D01*
X52095Y-43550D02*
X51667Y-44450D01*
X52191Y-43817D02*
X52381Y-43817D01*
X52262Y-43583D02*
X52262Y-44183D01*
X52286Y-44250D01*
X52333Y-44283D01*
X52381Y-44283D01*
X52739Y-44250D02*
X52691Y-44283D01*
X52596Y-44283D01*
X52548Y-44250D01*
X52524Y-44183D01*
X52524Y-43917D01*
X52548Y-43850D01*
X52596Y-43817D01*
X52691Y-43817D01*
X52739Y-43850D01*
X52762Y-43917D01*
X52762Y-43983D01*
X52524Y-44050D01*
X53191Y-44250D02*
X53144Y-44283D01*
X53048Y-44283D01*
X53001Y-44250D01*
X52977Y-44217D01*
X52953Y-44150D01*
X52953Y-43950D01*
X52977Y-43883D01*
X53001Y-43850D01*
X53048Y-43817D01*
X53144Y-43817D01*
X53191Y-43850D01*
X53406Y-44283D02*
X53406Y-43583D01*
X53620Y-44283D02*
X53620Y-43917D01*
X53597Y-43850D01*
X53549Y-43817D01*
X53477Y-43817D01*
X53430Y-43850D01*
X53406Y-43883D01*
X54072Y-43817D02*
X54072Y-44283D01*
X53858Y-43817D02*
X53858Y-44183D01*
X53882Y-44250D01*
X53929Y-44283D01*
X54001Y-44283D01*
X54049Y-44250D01*
X54072Y-44217D01*
X54310Y-43817D02*
X54310Y-44283D01*
X54310Y-43883D02*
X54334Y-43850D01*
X54381Y-43817D01*
X54453Y-43817D01*
X54501Y-43850D01*
X54524Y-43917D01*
X54524Y-44283D01*
X54762Y-44283D02*
X54762Y-43583D01*
X54762Y-43850D02*
X54810Y-43817D01*
X54905Y-43817D01*
X54953Y-43850D01*
X54976Y-43883D01*
X55000Y-43950D01*
X55000Y-44150D01*
X54976Y-44217D01*
X54953Y-44250D01*
X54905Y-44283D01*
X54810Y-44283D01*
X54762Y-44250D01*
X55285Y-44283D02*
X55238Y-44250D01*
X55214Y-44217D01*
X55190Y-44150D01*
X55190Y-43950D01*
X55214Y-43883D01*
X55238Y-43850D01*
X55285Y-43817D01*
X55357Y-43817D01*
X55405Y-43850D01*
X55428Y-43883D01*
X55452Y-43950D01*
X55452Y-44150D01*
X55428Y-44217D01*
X55405Y-44250D01*
X55357Y-44283D01*
X55285Y-44283D01*
X55618Y-44283D02*
X55880Y-43817D01*
X55618Y-43817D02*
X55880Y-44283D01*
X56262Y-44250D02*
X56214Y-44283D01*
X56119Y-44283D01*
X56071Y-44250D01*
X56047Y-44183D01*
X56047Y-43917D01*
X56071Y-43850D01*
X56119Y-43817D01*
X56214Y-43817D01*
X56262Y-43850D01*
X56285Y-43917D01*
X56285Y-43983D01*
X56047Y-44050D01*
X56714Y-44283D02*
X56714Y-43583D01*
X56714Y-44250D02*
X56667Y-44283D01*
X56571Y-44283D01*
X56524Y-44250D01*
X56500Y-44217D01*
X56476Y-44150D01*
X56476Y-43950D01*
X56500Y-43883D01*
X56524Y-43850D01*
X56571Y-43817D01*
X56667Y-43817D01*
X56714Y-43850D01*
X56952Y-44217D02*
X56976Y-44250D01*
X56952Y-44283D01*
X56928Y-44250D01*
X56952Y-44217D01*
X56952Y-44283D01*
X57404Y-44250D02*
X57357Y-44283D01*
X57261Y-44283D01*
X57214Y-44250D01*
X57190Y-44217D01*
X57166Y-44150D01*
X57166Y-43950D01*
X57190Y-43883D01*
X57214Y-43850D01*
X57261Y-43817D01*
X57357Y-43817D01*
X57404Y-43850D01*
X57690Y-44283D02*
X57643Y-44250D01*
X57619Y-44217D01*
X57595Y-44150D01*
X57595Y-43950D01*
X57619Y-43883D01*
X57643Y-43850D01*
X57690Y-43817D01*
X57762Y-43817D01*
X57810Y-43850D01*
X57833Y-43883D01*
X57857Y-43950D01*
X57857Y-44150D01*
X57833Y-44217D01*
X57810Y-44250D01*
X57762Y-44283D01*
X57690Y-44283D01*
X58071Y-44283D02*
X58071Y-43817D01*
X58071Y-43883D02*
X58095Y-43850D01*
X58142Y-43817D01*
X58214Y-43817D01*
X58262Y-43850D01*
X58285Y-43917D01*
X58285Y-44283D01*
X58285Y-43917D02*
X58309Y-43850D01*
X58357Y-43817D01*
X58428Y-43817D01*
X58476Y-43850D01*
X58500Y-43917D01*
X58500Y-44283D01*
X49560Y-36583D02*
X49560Y-37150D01*
X49584Y-37217D01*
X49608Y-37250D01*
X49655Y-37283D01*
X49751Y-37283D01*
X49798Y-37250D01*
X49822Y-37217D01*
X49846Y-37150D01*
X49846Y-36583D01*
X50060Y-37250D02*
X50132Y-37283D01*
X50251Y-37283D01*
X50298Y-37250D01*
X50322Y-37217D01*
X50346Y-37150D01*
X50346Y-37083D01*
X50322Y-37017D01*
X50298Y-36983D01*
X50251Y-36950D01*
X50155Y-36917D01*
X50108Y-36883D01*
X50084Y-36850D01*
X50060Y-36783D01*
X50060Y-36717D01*
X50084Y-36650D01*
X50108Y-36617D01*
X50155Y-36583D01*
X50275Y-36583D01*
X50346Y-36617D01*
X50727Y-36917D02*
X50798Y-36950D01*
X50822Y-36983D01*
X50846Y-37050D01*
X50846Y-37150D01*
X50822Y-37217D01*
X50798Y-37250D01*
X50751Y-37283D01*
X50560Y-37283D01*
X50560Y-36583D01*
X50727Y-36583D01*
X50774Y-36617D01*
X50798Y-36650D01*
X50822Y-36717D01*
X50822Y-36783D01*
X50798Y-36850D01*
X50774Y-36883D01*
X50727Y-36917D01*
X50560Y-36917D01*
X51608Y-36917D02*
X51679Y-36950D01*
X51703Y-36983D01*
X51727Y-37050D01*
X51727Y-37150D01*
X51703Y-37217D01*
X51679Y-37250D01*
X51632Y-37283D01*
X51441Y-37283D01*
X51441Y-36583D01*
X51608Y-36583D01*
X51655Y-36617D01*
X51679Y-36650D01*
X51703Y-36717D01*
X51703Y-36783D01*
X51679Y-36850D01*
X51655Y-36883D01*
X51608Y-36917D01*
X51441Y-36917D01*
X51941Y-37283D02*
X51941Y-36817D01*
X51941Y-36950D02*
X51965Y-36883D01*
X51989Y-36850D01*
X52036Y-36817D01*
X52084Y-36817D01*
X52442Y-37250D02*
X52394Y-37283D01*
X52299Y-37283D01*
X52251Y-37250D01*
X52227Y-37183D01*
X52227Y-36917D01*
X52251Y-36850D01*
X52299Y-36817D01*
X52394Y-36817D01*
X52442Y-36850D01*
X52465Y-36917D01*
X52465Y-36983D01*
X52227Y-37050D01*
X52894Y-37283D02*
X52894Y-36917D01*
X52871Y-36850D01*
X52823Y-36817D01*
X52728Y-36817D01*
X52680Y-36850D01*
X52894Y-37250D02*
X52847Y-37283D01*
X52728Y-37283D01*
X52680Y-37250D01*
X52656Y-37183D01*
X52656Y-37117D01*
X52680Y-37050D01*
X52728Y-37017D01*
X52847Y-37017D01*
X52894Y-36983D01*
X53132Y-37283D02*
X53132Y-36583D01*
X53180Y-37017D02*
X53323Y-37283D01*
X53323Y-36817D02*
X53132Y-37083D01*
X53608Y-37283D02*
X53561Y-37250D01*
X53537Y-37217D01*
X53513Y-37150D01*
X53513Y-36950D01*
X53537Y-36883D01*
X53561Y-36850D01*
X53608Y-36817D01*
X53680Y-36817D01*
X53728Y-36850D01*
X53751Y-36883D01*
X53775Y-36950D01*
X53775Y-37150D01*
X53751Y-37217D01*
X53728Y-37250D01*
X53680Y-37283D01*
X53608Y-37283D01*
X54203Y-36817D02*
X54203Y-37283D01*
X53989Y-36817D02*
X53989Y-37183D01*
X54013Y-37250D01*
X54060Y-37283D01*
X54132Y-37283D01*
X54180Y-37250D01*
X54203Y-37217D01*
X54370Y-36817D02*
X54560Y-36817D01*
X54441Y-36583D02*
X54441Y-37183D01*
X54465Y-37250D01*
X54512Y-37283D01*
X54560Y-37283D01*
X55060Y-36817D02*
X55179Y-37283D01*
X55299Y-36817D01*
X55465Y-36650D02*
X55489Y-36617D01*
X55537Y-36583D01*
X55656Y-36583D01*
X55703Y-36617D01*
X55727Y-36650D01*
X55751Y-36717D01*
X55751Y-36783D01*
X55727Y-36883D01*
X55441Y-37283D01*
X55751Y-37283D01*
X55965Y-37217D02*
X55989Y-37250D01*
X55965Y-37283D01*
X55941Y-37250D01*
X55965Y-37217D01*
X55965Y-37283D01*
X56298Y-36583D02*
X56346Y-36583D01*
X56394Y-36617D01*
X56417Y-36650D01*
X56441Y-36717D01*
X56465Y-36850D01*
X56465Y-37017D01*
X56441Y-37150D01*
X56417Y-37217D01*
X56394Y-37250D01*
X56346Y-37283D01*
X56298Y-37283D01*
X56251Y-37250D01*
X56227Y-37217D01*
X56203Y-37150D01*
X56179Y-37017D01*
X56179Y-36850D01*
X56203Y-36717D01*
X56227Y-36650D01*
X56251Y-36617D01*
X56298Y-36583D01*
G54D13*
G36*
X60433Y-37579D02*
X60430Y-37670D01*
X60409Y-37715D01*
X60400Y-37718D01*
X60400Y-37581D01*
X60381Y-37490D01*
X60321Y-37444D01*
X60231Y-37433D01*
X60171Y-37404D01*
X60116Y-37332D01*
X60084Y-37260D01*
X60088Y-37207D01*
X60129Y-37139D01*
X60136Y-37129D01*
X60208Y-37027D01*
X60124Y-36943D01*
X60040Y-36859D01*
X59941Y-36932D01*
X59870Y-36979D01*
X59818Y-36986D01*
X59749Y-36958D01*
X59741Y-36954D01*
X59657Y-36885D01*
X59619Y-36784D01*
X59597Y-36705D01*
X59558Y-36672D01*
X59484Y-36666D01*
X59411Y-36672D01*
X59374Y-36702D01*
X59354Y-36776D01*
X59350Y-36797D01*
X59307Y-36911D01*
X59231Y-36969D01*
X59128Y-36968D01*
X59036Y-36925D01*
X58930Y-36858D01*
X58848Y-36934D01*
X58767Y-37010D01*
X58837Y-37123D01*
X58880Y-37206D01*
X58886Y-37271D01*
X58867Y-37330D01*
X58823Y-37399D01*
X58747Y-37436D01*
X58697Y-37446D01*
X58613Y-37464D01*
X58575Y-37496D01*
X58566Y-37560D01*
X58566Y-37579D01*
X58572Y-37653D01*
X58604Y-37690D01*
X58680Y-37709D01*
X58692Y-37711D01*
X58784Y-37737D01*
X58836Y-37789D01*
X58858Y-37838D01*
X58880Y-37920D01*
X58866Y-37989D01*
X58833Y-38049D01*
X58793Y-38120D01*
X58788Y-38163D01*
X58822Y-38207D01*
X58841Y-38227D01*
X58896Y-38279D01*
X58933Y-38293D01*
X58981Y-38270D01*
X59033Y-38233D01*
X59110Y-38192D01*
X59171Y-38183D01*
X59175Y-38185D01*
X59214Y-38174D01*
X59258Y-38109D01*
X59298Y-38021D01*
X59372Y-37838D01*
X59302Y-37769D01*
X59235Y-37660D01*
X59227Y-37541D01*
X59277Y-37427D01*
X59326Y-37375D01*
X59438Y-37311D01*
X59544Y-37313D01*
X59652Y-37381D01*
X59669Y-37397D01*
X59747Y-37508D01*
X59759Y-37619D01*
X59705Y-37734D01*
X59688Y-37755D01*
X59610Y-37850D01*
X59689Y-38028D01*
X59741Y-38133D01*
X59784Y-38182D01*
X59820Y-38186D01*
X59880Y-38191D01*
X59955Y-38231D01*
X59959Y-38234D01*
X60045Y-38302D01*
X60126Y-38222D01*
X60178Y-38164D01*
X60186Y-38121D01*
X60154Y-38061D01*
X60148Y-38053D01*
X60106Y-37939D01*
X60124Y-37834D01*
X60195Y-37753D01*
X60276Y-37719D01*
X60357Y-37692D01*
X60392Y-37652D01*
X60400Y-37581D01*
X60400Y-37718D01*
X60354Y-37736D01*
X60302Y-37745D01*
X60213Y-37767D01*
X60169Y-37807D01*
X60150Y-37865D01*
X60153Y-37988D01*
X60188Y-38065D01*
X60224Y-38134D01*
X60224Y-38180D01*
X60182Y-38232D01*
X60160Y-38254D01*
X60072Y-38342D01*
X59961Y-38276D01*
X59875Y-38236D01*
X59806Y-38222D01*
X59796Y-38223D01*
X59754Y-38209D01*
X59706Y-38142D01*
X59659Y-38043D01*
X59575Y-37850D01*
X59654Y-37755D01*
X59721Y-37638D01*
X59721Y-37525D01*
X59655Y-37419D01*
X59651Y-37415D01*
X59553Y-37346D01*
X59457Y-37344D01*
X59354Y-37407D01*
X59353Y-37408D01*
X59275Y-37513D01*
X59259Y-37624D01*
X59306Y-37729D01*
X59337Y-37762D01*
X59407Y-37828D01*
X59328Y-38032D01*
X59280Y-38145D01*
X59241Y-38206D01*
X59202Y-38227D01*
X59182Y-38227D01*
X59107Y-38239D01*
X59033Y-38275D01*
X58968Y-38318D01*
X58923Y-38325D01*
X58874Y-38292D01*
X58819Y-38236D01*
X58726Y-38139D01*
X58798Y-38042D01*
X58844Y-37968D01*
X58849Y-37909D01*
X58829Y-37855D01*
X58766Y-37777D01*
X58702Y-37746D01*
X58603Y-37721D01*
X58553Y-37691D01*
X58535Y-37640D01*
X58533Y-37585D01*
X58557Y-37478D01*
X58630Y-37416D01*
X58731Y-37400D01*
X58803Y-37373D01*
X58840Y-37304D01*
X58838Y-37209D01*
X58801Y-37118D01*
X58734Y-37011D01*
X58832Y-36917D01*
X58929Y-36824D01*
X59036Y-36892D01*
X59147Y-36936D01*
X59237Y-36918D01*
X59300Y-36839D01*
X59323Y-36770D01*
X59347Y-36693D01*
X59386Y-36656D01*
X59464Y-36641D01*
X59489Y-36639D01*
X59577Y-36636D01*
X59620Y-36655D01*
X59640Y-36713D01*
X59648Y-36760D01*
X59690Y-36877D01*
X59761Y-36938D01*
X59854Y-36940D01*
X59932Y-36900D01*
X60015Y-36848D01*
X60072Y-36841D01*
X60128Y-36881D01*
X60160Y-36916D01*
X60215Y-36987D01*
X60226Y-37039D01*
X60192Y-37100D01*
X60169Y-37130D01*
X60124Y-37230D01*
X60140Y-37318D01*
X60212Y-37384D01*
X60301Y-37413D01*
X60383Y-37429D01*
X60421Y-37458D01*
X60432Y-37521D01*
X60433Y-37579D01*
X60433Y-37579D01*
X60433Y-37579D01*
G37*
G54D14*
X47450Y-38100D02*
X47450Y-42900D01*
X47450Y-42900D02*
X54150Y-42900D01*
X54150Y-42900D02*
X54150Y-38100D01*
X54150Y-38100D02*
X47450Y-38100D01*
X61050Y-37550D02*
X66600Y-37550D01*
X66600Y-43450D02*
X61050Y-43450D01*
X61050Y-37550D02*
X61050Y-43450D01*
X66600Y-37550D02*
X66600Y-43450D01*
G54D12*
X58500Y-38500D02*
X58500Y-42500D01*
X58500Y-42500D02*
X56500Y-42500D01*
X56500Y-42500D02*
X56500Y-38500D01*
X56500Y-38500D02*
X58500Y-38500D01*
X51143Y-41785D02*
X51629Y-41785D01*
X51686Y-41757D01*
X51714Y-41728D01*
X51743Y-41671D01*
X51743Y-41557D01*
X51714Y-41499D01*
X51686Y-41471D01*
X51629Y-41442D01*
X51143Y-41442D01*
X51714Y-41185D02*
X51743Y-41099D01*
X51743Y-40956D01*
X51714Y-40899D01*
X51686Y-40870D01*
X51629Y-40842D01*
X51571Y-40842D01*
X51514Y-40870D01*
X51486Y-40899D01*
X51457Y-40956D01*
X51429Y-41070D01*
X51400Y-41128D01*
X51371Y-41156D01*
X51314Y-41185D01*
X51257Y-41185D01*
X51200Y-41156D01*
X51171Y-41128D01*
X51143Y-41070D01*
X51143Y-40928D01*
X51171Y-40842D01*
X51429Y-40385D02*
X51457Y-40299D01*
X51486Y-40271D01*
X51543Y-40242D01*
X51629Y-40242D01*
X51686Y-40271D01*
X51714Y-40299D01*
X51743Y-40357D01*
X51743Y-40585D01*
X51143Y-40585D01*
X51143Y-40385D01*
X51171Y-40328D01*
X51200Y-40299D01*
X51257Y-40271D01*
X51314Y-40271D01*
X51371Y-40299D01*
X51400Y-40328D01*
X51429Y-40385D01*
X51429Y-40585D01*
X51800Y-40128D02*
X51800Y-39671D01*
X51429Y-39328D02*
X51457Y-39242D01*
X51486Y-39214D01*
X51543Y-39185D01*
X51629Y-39185D01*
X51686Y-39214D01*
X51714Y-39242D01*
X51743Y-39300D01*
X51743Y-39528D01*
X51143Y-39528D01*
X51143Y-39328D01*
X51171Y-39271D01*
X51200Y-39242D01*
X51257Y-39214D01*
X51314Y-39214D01*
X51371Y-39242D01*
X51400Y-39271D01*
X51429Y-39328D01*
X51429Y-39528D01*
X63258Y-39143D02*
X63258Y-39629D01*
X63286Y-39686D01*
X63315Y-39714D01*
X63372Y-39743D01*
X63486Y-39743D01*
X63544Y-39714D01*
X63572Y-39686D01*
X63601Y-39629D01*
X63601Y-39143D01*
X63858Y-39714D02*
X63944Y-39743D01*
X64087Y-39743D01*
X64144Y-39714D01*
X64173Y-39686D01*
X64201Y-39629D01*
X64201Y-39571D01*
X64173Y-39514D01*
X64144Y-39486D01*
X64087Y-39457D01*
X63973Y-39429D01*
X63915Y-39400D01*
X63887Y-39371D01*
X63858Y-39314D01*
X63858Y-39257D01*
X63887Y-39200D01*
X63915Y-39171D01*
X63973Y-39143D01*
X64115Y-39143D01*
X64201Y-39171D01*
X64658Y-39429D02*
X64744Y-39457D01*
X64772Y-39486D01*
X64801Y-39543D01*
X64801Y-39629D01*
X64772Y-39686D01*
X64744Y-39714D01*
X64686Y-39743D01*
X64458Y-39743D01*
X64458Y-39143D01*
X64658Y-39143D01*
X64715Y-39171D01*
X64744Y-39200D01*
X64772Y-39257D01*
X64772Y-39314D01*
X64744Y-39371D01*
X64715Y-39400D01*
X64658Y-39429D01*
X64458Y-39429D01*
X64915Y-39800D02*
X65372Y-39800D01*
X65486Y-39571D02*
X65772Y-39571D01*
X65429Y-39743D02*
X65629Y-39143D01*
X65829Y-39743D01*
M02*
