G04 (created by PCBNEW (2013-05-16 BZR 4016)-stable) date 6/1/2013 11:24:41 AM*
%MOIN*%
G04 Gerber Fmt 3.4, Leading zero omitted, Abs format*
%FSLAX34Y34*%
G01*
G70*
G90*
G04 APERTURE LIST*
%ADD10C,0.00393701*%
%ADD11C,0.01*%
%ADD12C,0.005*%
%ADD13C,0.012*%
%ADD14C,0.0001*%
G04 APERTURE END LIST*
G54D10*
G54D11*
X59814Y-44192D02*
X59814Y-43592D01*
X59814Y-43821D02*
X59852Y-43792D01*
X59928Y-43792D01*
X59966Y-43821D01*
X59985Y-43850D01*
X60004Y-43907D01*
X60004Y-44078D01*
X59985Y-44135D01*
X59966Y-44164D01*
X59928Y-44192D01*
X59852Y-44192D01*
X59814Y-44164D01*
X59985Y-37292D02*
X59985Y-36978D01*
X59966Y-36921D01*
X59928Y-36892D01*
X59852Y-36892D01*
X59814Y-36921D01*
X59985Y-37264D02*
X59947Y-37292D01*
X59852Y-37292D01*
X59814Y-37264D01*
X59795Y-37207D01*
X59795Y-37150D01*
X59814Y-37092D01*
X59852Y-37064D01*
X59947Y-37064D01*
X59985Y-37035D01*
X50871Y-43882D02*
X51024Y-43882D01*
X50929Y-43682D02*
X50929Y-44197D01*
X50948Y-44254D01*
X50986Y-44282D01*
X51024Y-44282D01*
X51310Y-44254D02*
X51271Y-44282D01*
X51195Y-44282D01*
X51157Y-44254D01*
X51138Y-44197D01*
X51138Y-43968D01*
X51157Y-43911D01*
X51195Y-43882D01*
X51271Y-43882D01*
X51310Y-43911D01*
X51329Y-43968D01*
X51329Y-44025D01*
X51138Y-44082D01*
X51671Y-44254D02*
X51633Y-44282D01*
X51557Y-44282D01*
X51519Y-44254D01*
X51500Y-44225D01*
X51481Y-44168D01*
X51481Y-43997D01*
X51500Y-43940D01*
X51519Y-43911D01*
X51557Y-43882D01*
X51633Y-43882D01*
X51671Y-43911D01*
X51843Y-44282D02*
X51843Y-43682D01*
X52014Y-44282D02*
X52014Y-43968D01*
X51995Y-43911D01*
X51957Y-43882D01*
X51900Y-43882D01*
X51862Y-43911D01*
X51843Y-43940D01*
X52376Y-43882D02*
X52376Y-44282D01*
X52205Y-43882D02*
X52205Y-44197D01*
X52224Y-44254D01*
X52262Y-44282D01*
X52319Y-44282D01*
X52357Y-44254D01*
X52376Y-44225D01*
X52567Y-43882D02*
X52567Y-44282D01*
X52567Y-43940D02*
X52586Y-43911D01*
X52624Y-43882D01*
X52681Y-43882D01*
X52719Y-43911D01*
X52738Y-43968D01*
X52738Y-44282D01*
X52929Y-44282D02*
X52929Y-43682D01*
X52929Y-43911D02*
X52967Y-43882D01*
X53043Y-43882D01*
X53081Y-43911D01*
X53100Y-43940D01*
X53119Y-43997D01*
X53119Y-44168D01*
X53100Y-44225D01*
X53081Y-44254D01*
X53043Y-44282D01*
X52967Y-44282D01*
X52929Y-44254D01*
X53348Y-44282D02*
X53310Y-44254D01*
X53290Y-44225D01*
X53271Y-44168D01*
X53271Y-43997D01*
X53290Y-43940D01*
X53310Y-43911D01*
X53348Y-43882D01*
X53405Y-43882D01*
X53443Y-43911D01*
X53462Y-43940D01*
X53481Y-43997D01*
X53481Y-44168D01*
X53462Y-44225D01*
X53443Y-44254D01*
X53405Y-44282D01*
X53348Y-44282D01*
X53614Y-44282D02*
X53824Y-43882D01*
X53614Y-43882D02*
X53824Y-44282D01*
X54129Y-44254D02*
X54090Y-44282D01*
X54014Y-44282D01*
X53976Y-44254D01*
X53957Y-44197D01*
X53957Y-43968D01*
X53976Y-43911D01*
X54014Y-43882D01*
X54090Y-43882D01*
X54129Y-43911D01*
X54148Y-43968D01*
X54148Y-44025D01*
X53957Y-44082D01*
X54490Y-44282D02*
X54490Y-43682D01*
X54490Y-44254D02*
X54452Y-44282D01*
X54376Y-44282D01*
X54338Y-44254D01*
X54319Y-44225D01*
X54300Y-44168D01*
X54300Y-43997D01*
X54319Y-43940D01*
X54338Y-43911D01*
X54376Y-43882D01*
X54452Y-43882D01*
X54490Y-43911D01*
X49417Y-36692D02*
X49417Y-37178D01*
X49436Y-37235D01*
X49455Y-37264D01*
X49493Y-37292D01*
X49570Y-37292D01*
X49608Y-37264D01*
X49627Y-37235D01*
X49646Y-37178D01*
X49646Y-36692D01*
X49817Y-37264D02*
X49874Y-37292D01*
X49970Y-37292D01*
X50008Y-37264D01*
X50027Y-37235D01*
X50046Y-37178D01*
X50046Y-37121D01*
X50027Y-37064D01*
X50008Y-37035D01*
X49970Y-37007D01*
X49893Y-36978D01*
X49855Y-36950D01*
X49836Y-36921D01*
X49817Y-36864D01*
X49817Y-36807D01*
X49836Y-36750D01*
X49855Y-36721D01*
X49893Y-36692D01*
X49989Y-36692D01*
X50046Y-36721D01*
X50350Y-36978D02*
X50408Y-37007D01*
X50427Y-37035D01*
X50446Y-37092D01*
X50446Y-37178D01*
X50427Y-37235D01*
X50408Y-37264D01*
X50370Y-37292D01*
X50217Y-37292D01*
X50217Y-36692D01*
X50350Y-36692D01*
X50389Y-36721D01*
X50408Y-36750D01*
X50427Y-36807D01*
X50427Y-36864D01*
X50408Y-36921D01*
X50389Y-36950D01*
X50350Y-36978D01*
X50217Y-36978D01*
X51055Y-36978D02*
X51112Y-37007D01*
X51131Y-37035D01*
X51150Y-37092D01*
X51150Y-37178D01*
X51131Y-37235D01*
X51112Y-37264D01*
X51074Y-37292D01*
X50922Y-37292D01*
X50922Y-36692D01*
X51055Y-36692D01*
X51093Y-36721D01*
X51112Y-36750D01*
X51131Y-36807D01*
X51131Y-36864D01*
X51112Y-36921D01*
X51093Y-36950D01*
X51055Y-36978D01*
X50922Y-36978D01*
X51322Y-37292D02*
X51322Y-36892D01*
X51322Y-37007D02*
X51341Y-36950D01*
X51360Y-36921D01*
X51398Y-36892D01*
X51436Y-36892D01*
X51722Y-37264D02*
X51684Y-37292D01*
X51608Y-37292D01*
X51570Y-37264D01*
X51550Y-37207D01*
X51550Y-36978D01*
X51570Y-36921D01*
X51608Y-36892D01*
X51684Y-36892D01*
X51722Y-36921D01*
X51741Y-36978D01*
X51741Y-37035D01*
X51550Y-37092D01*
X52084Y-37292D02*
X52084Y-36978D01*
X52065Y-36921D01*
X52027Y-36892D01*
X51950Y-36892D01*
X51912Y-36921D01*
X52084Y-37264D02*
X52046Y-37292D01*
X51950Y-37292D01*
X51912Y-37264D01*
X51893Y-37207D01*
X51893Y-37150D01*
X51912Y-37092D01*
X51950Y-37064D01*
X52046Y-37064D01*
X52084Y-37035D01*
X52274Y-37292D02*
X52274Y-36692D01*
X52312Y-37064D02*
X52427Y-37292D01*
X52427Y-36892D02*
X52274Y-37121D01*
X52655Y-37292D02*
X52617Y-37264D01*
X52598Y-37235D01*
X52579Y-37178D01*
X52579Y-37007D01*
X52598Y-36950D01*
X52617Y-36921D01*
X52655Y-36892D01*
X52712Y-36892D01*
X52750Y-36921D01*
X52770Y-36950D01*
X52789Y-37007D01*
X52789Y-37178D01*
X52770Y-37235D01*
X52750Y-37264D01*
X52712Y-37292D01*
X52655Y-37292D01*
X53131Y-36892D02*
X53131Y-37292D01*
X52960Y-36892D02*
X52960Y-37207D01*
X52979Y-37264D01*
X53017Y-37292D01*
X53074Y-37292D01*
X53112Y-37264D01*
X53131Y-37235D01*
X53265Y-36892D02*
X53417Y-36892D01*
X53322Y-36692D02*
X53322Y-37207D01*
X53341Y-37264D01*
X53379Y-37292D01*
X53417Y-37292D01*
X53817Y-36892D02*
X53912Y-37292D01*
X54008Y-36892D01*
X54369Y-37292D02*
X54141Y-37292D01*
X54255Y-37292D02*
X54255Y-36692D01*
X54217Y-36778D01*
X54179Y-36835D01*
X54141Y-36864D01*
X54541Y-37235D02*
X54560Y-37264D01*
X54541Y-37292D01*
X54522Y-37264D01*
X54541Y-37235D01*
X54541Y-37292D01*
X54693Y-36692D02*
X54941Y-36692D01*
X54808Y-36921D01*
X54865Y-36921D01*
X54903Y-36950D01*
X54922Y-36978D01*
X54941Y-37035D01*
X54941Y-37178D01*
X54922Y-37235D01*
X54903Y-37264D01*
X54865Y-37292D01*
X54750Y-37292D01*
X54712Y-37264D01*
X54693Y-37235D01*
X58904Y-42845D02*
X59000Y-43111D01*
X59095Y-42845D01*
X57847Y-42959D02*
X58152Y-42959D01*
X56847Y-42959D02*
X57152Y-42959D01*
X57000Y-43111D02*
X57000Y-42807D01*
X56085Y-42845D02*
X56085Y-43169D01*
X56066Y-43207D01*
X56047Y-43226D01*
X56009Y-43245D01*
X55952Y-43245D01*
X55914Y-43226D01*
X56085Y-43092D02*
X56047Y-43111D01*
X55971Y-43111D01*
X55933Y-43092D01*
X55914Y-43073D01*
X55895Y-43035D01*
X55895Y-42921D01*
X55914Y-42883D01*
X55933Y-42864D01*
X55971Y-42845D01*
X56047Y-42845D01*
X56085Y-42864D01*
X55223Y-38842D02*
X55223Y-39328D01*
X55204Y-39385D01*
X55185Y-39414D01*
X55147Y-39442D01*
X55090Y-39442D01*
X55052Y-39414D01*
X55223Y-39214D02*
X55185Y-39242D01*
X55109Y-39242D01*
X55071Y-39214D01*
X55052Y-39185D01*
X55033Y-39128D01*
X55033Y-38957D01*
X55052Y-38900D01*
X55071Y-38871D01*
X55109Y-38842D01*
X55185Y-38842D01*
X55223Y-38871D01*
X55414Y-38842D02*
X55414Y-39242D01*
X55414Y-38900D02*
X55433Y-38871D01*
X55471Y-38842D01*
X55528Y-38842D01*
X55566Y-38871D01*
X55585Y-38928D01*
X55585Y-39242D01*
X55947Y-39242D02*
X55947Y-38642D01*
X55947Y-39214D02*
X55909Y-39242D01*
X55833Y-39242D01*
X55795Y-39214D01*
X55776Y-39185D01*
X55757Y-39128D01*
X55757Y-38957D01*
X55776Y-38900D01*
X55795Y-38871D01*
X55833Y-38842D01*
X55909Y-38842D01*
X55947Y-38871D01*
X55338Y-40242D02*
X55338Y-39642D01*
X55338Y-40214D02*
X55300Y-40242D01*
X55223Y-40242D01*
X55185Y-40214D01*
X55166Y-40185D01*
X55147Y-40128D01*
X55147Y-39957D01*
X55166Y-39900D01*
X55185Y-39871D01*
X55223Y-39842D01*
X55300Y-39842D01*
X55338Y-39871D01*
X55528Y-40014D02*
X55833Y-40014D01*
X55680Y-40242D02*
X55680Y-39785D01*
X55338Y-41242D02*
X55338Y-40642D01*
X55338Y-41214D02*
X55300Y-41242D01*
X55223Y-41242D01*
X55185Y-41214D01*
X55166Y-41185D01*
X55147Y-41128D01*
X55147Y-40957D01*
X55166Y-40900D01*
X55185Y-40871D01*
X55223Y-40842D01*
X55300Y-40842D01*
X55338Y-40871D01*
X55528Y-41014D02*
X55833Y-41014D01*
X58904Y-37945D02*
X59000Y-38211D01*
X59095Y-37945D01*
X57847Y-38059D02*
X58152Y-38059D01*
X56847Y-38059D02*
X57152Y-38059D01*
X57000Y-38211D02*
X57000Y-37907D01*
X54880Y-41842D02*
X54976Y-42242D01*
X55071Y-41842D01*
X55223Y-42242D02*
X55223Y-41642D01*
X55223Y-41871D02*
X55261Y-41842D01*
X55338Y-41842D01*
X55376Y-41871D01*
X55395Y-41900D01*
X55414Y-41957D01*
X55414Y-42128D01*
X55395Y-42185D01*
X55376Y-42214D01*
X55338Y-42242D01*
X55261Y-42242D01*
X55223Y-42214D01*
X55757Y-41842D02*
X55757Y-42242D01*
X55585Y-41842D02*
X55585Y-42157D01*
X55604Y-42214D01*
X55642Y-42242D01*
X55700Y-42242D01*
X55738Y-42214D01*
X55757Y-42185D01*
X55928Y-42214D02*
X55966Y-42242D01*
X56042Y-42242D01*
X56080Y-42214D01*
X56100Y-42157D01*
X56100Y-42128D01*
X56080Y-42071D01*
X56042Y-42042D01*
X55985Y-42042D01*
X55947Y-42014D01*
X55928Y-41957D01*
X55928Y-41928D01*
X55947Y-41871D01*
X55985Y-41842D01*
X56042Y-41842D01*
X56080Y-41871D01*
X56085Y-37945D02*
X56085Y-38269D01*
X56066Y-38307D01*
X56047Y-38326D01*
X56009Y-38345D01*
X55952Y-38345D01*
X55914Y-38326D01*
X56085Y-38192D02*
X56047Y-38211D01*
X55971Y-38211D01*
X55933Y-38192D01*
X55914Y-38173D01*
X55895Y-38135D01*
X55895Y-38021D01*
X55914Y-37983D01*
X55933Y-37964D01*
X55971Y-37945D01*
X56047Y-37945D01*
X56085Y-37964D01*
G54D12*
X47450Y-38100D02*
X47450Y-42900D01*
X47450Y-42900D02*
X54150Y-42900D01*
X54150Y-42900D02*
X54150Y-38100D01*
X54150Y-38100D02*
X47450Y-38100D01*
X61050Y-37550D02*
X66600Y-37550D01*
X66600Y-43450D02*
X61050Y-43450D01*
X61050Y-37550D02*
X61050Y-43450D01*
X66600Y-37550D02*
X66600Y-43450D01*
G54D13*
X58500Y-38500D02*
X58500Y-42500D01*
X58500Y-42500D02*
X56500Y-42500D01*
X56500Y-42500D02*
X56500Y-38500D01*
X56500Y-38500D02*
X58500Y-38500D01*
G54D11*
X59500Y-37550D02*
X55500Y-37550D01*
X59500Y-36550D02*
X55500Y-36550D01*
X55500Y-36550D02*
X55500Y-37550D01*
X59500Y-37550D02*
X59500Y-36550D01*
X59500Y-44450D02*
X55500Y-44450D01*
X59500Y-43450D02*
X55500Y-43450D01*
X55500Y-43450D02*
X55500Y-44450D01*
X59500Y-44450D02*
X59500Y-43450D01*
G54D14*
G36*
X60733Y-40579D02*
X60730Y-40670D01*
X60709Y-40715D01*
X60700Y-40718D01*
X60700Y-40581D01*
X60681Y-40490D01*
X60621Y-40444D01*
X60531Y-40433D01*
X60471Y-40404D01*
X60416Y-40332D01*
X60384Y-40260D01*
X60388Y-40207D01*
X60429Y-40139D01*
X60436Y-40129D01*
X60508Y-40027D01*
X60424Y-39943D01*
X60340Y-39859D01*
X60241Y-39932D01*
X60170Y-39979D01*
X60118Y-39986D01*
X60049Y-39958D01*
X60041Y-39954D01*
X59957Y-39885D01*
X59919Y-39784D01*
X59897Y-39705D01*
X59858Y-39672D01*
X59784Y-39666D01*
X59711Y-39672D01*
X59674Y-39702D01*
X59654Y-39776D01*
X59650Y-39797D01*
X59607Y-39911D01*
X59531Y-39969D01*
X59428Y-39968D01*
X59336Y-39925D01*
X59230Y-39858D01*
X59148Y-39934D01*
X59067Y-40010D01*
X59137Y-40123D01*
X59180Y-40206D01*
X59186Y-40271D01*
X59167Y-40330D01*
X59123Y-40399D01*
X59047Y-40436D01*
X58997Y-40446D01*
X58913Y-40464D01*
X58875Y-40496D01*
X58866Y-40560D01*
X58866Y-40579D01*
X58872Y-40653D01*
X58904Y-40690D01*
X58980Y-40709D01*
X58992Y-40711D01*
X59084Y-40737D01*
X59136Y-40789D01*
X59158Y-40838D01*
X59180Y-40920D01*
X59166Y-40989D01*
X59133Y-41049D01*
X59093Y-41120D01*
X59088Y-41163D01*
X59122Y-41207D01*
X59141Y-41227D01*
X59196Y-41279D01*
X59233Y-41293D01*
X59281Y-41270D01*
X59333Y-41233D01*
X59410Y-41192D01*
X59471Y-41183D01*
X59475Y-41185D01*
X59514Y-41174D01*
X59558Y-41109D01*
X59598Y-41021D01*
X59672Y-40838D01*
X59602Y-40769D01*
X59535Y-40660D01*
X59527Y-40541D01*
X59577Y-40427D01*
X59626Y-40375D01*
X59738Y-40311D01*
X59844Y-40313D01*
X59952Y-40381D01*
X59969Y-40397D01*
X60047Y-40508D01*
X60059Y-40619D01*
X60005Y-40734D01*
X59988Y-40755D01*
X59910Y-40850D01*
X59989Y-41028D01*
X60041Y-41133D01*
X60084Y-41182D01*
X60120Y-41186D01*
X60180Y-41191D01*
X60255Y-41231D01*
X60259Y-41234D01*
X60345Y-41302D01*
X60426Y-41222D01*
X60478Y-41164D01*
X60486Y-41121D01*
X60454Y-41061D01*
X60448Y-41053D01*
X60406Y-40939D01*
X60424Y-40834D01*
X60495Y-40753D01*
X60576Y-40719D01*
X60657Y-40692D01*
X60692Y-40652D01*
X60700Y-40581D01*
X60700Y-40718D01*
X60654Y-40736D01*
X60602Y-40745D01*
X60513Y-40767D01*
X60469Y-40807D01*
X60450Y-40865D01*
X60453Y-40988D01*
X60488Y-41065D01*
X60524Y-41134D01*
X60524Y-41180D01*
X60482Y-41232D01*
X60460Y-41254D01*
X60372Y-41342D01*
X60261Y-41276D01*
X60175Y-41236D01*
X60106Y-41222D01*
X60096Y-41223D01*
X60054Y-41209D01*
X60006Y-41142D01*
X59959Y-41043D01*
X59875Y-40850D01*
X59954Y-40755D01*
X60021Y-40638D01*
X60021Y-40525D01*
X59955Y-40419D01*
X59951Y-40415D01*
X59853Y-40346D01*
X59757Y-40344D01*
X59654Y-40407D01*
X59653Y-40408D01*
X59575Y-40513D01*
X59559Y-40624D01*
X59606Y-40729D01*
X59637Y-40762D01*
X59707Y-40828D01*
X59628Y-41032D01*
X59580Y-41145D01*
X59541Y-41206D01*
X59502Y-41227D01*
X59482Y-41227D01*
X59407Y-41239D01*
X59333Y-41275D01*
X59268Y-41318D01*
X59223Y-41325D01*
X59174Y-41292D01*
X59119Y-41236D01*
X59026Y-41139D01*
X59098Y-41042D01*
X59144Y-40968D01*
X59149Y-40909D01*
X59129Y-40855D01*
X59066Y-40777D01*
X59002Y-40746D01*
X58903Y-40721D01*
X58853Y-40691D01*
X58835Y-40640D01*
X58833Y-40585D01*
X58857Y-40478D01*
X58930Y-40416D01*
X59031Y-40400D01*
X59103Y-40373D01*
X59140Y-40304D01*
X59138Y-40209D01*
X59101Y-40118D01*
X59034Y-40011D01*
X59132Y-39917D01*
X59229Y-39824D01*
X59336Y-39892D01*
X59447Y-39936D01*
X59537Y-39918D01*
X59600Y-39839D01*
X59623Y-39770D01*
X59647Y-39693D01*
X59686Y-39656D01*
X59764Y-39641D01*
X59789Y-39639D01*
X59877Y-39636D01*
X59920Y-39655D01*
X59940Y-39713D01*
X59948Y-39760D01*
X59990Y-39877D01*
X60061Y-39938D01*
X60154Y-39940D01*
X60232Y-39900D01*
X60315Y-39848D01*
X60372Y-39841D01*
X60428Y-39881D01*
X60460Y-39916D01*
X60515Y-39987D01*
X60526Y-40039D01*
X60492Y-40100D01*
X60469Y-40130D01*
X60424Y-40230D01*
X60440Y-40318D01*
X60512Y-40384D01*
X60601Y-40413D01*
X60683Y-40429D01*
X60721Y-40458D01*
X60732Y-40521D01*
X60733Y-40579D01*
X60733Y-40579D01*
X60733Y-40579D01*
G37*
G36*
X50604Y-44337D02*
X50537Y-44337D01*
X50537Y-44270D01*
X50537Y-43903D01*
X50537Y-43537D01*
X50515Y-43537D01*
X50515Y-43470D01*
X50437Y-43387D01*
X50399Y-43350D01*
X50357Y-43326D01*
X50297Y-43312D01*
X50204Y-43305D01*
X50066Y-43303D01*
X49992Y-43303D01*
X49625Y-43303D01*
X49704Y-43387D01*
X49742Y-43423D01*
X49784Y-43447D01*
X49844Y-43461D01*
X49936Y-43468D01*
X50075Y-43470D01*
X50148Y-43470D01*
X50515Y-43470D01*
X50515Y-43537D01*
X50170Y-43537D01*
X49804Y-43537D01*
X49804Y-43903D01*
X49804Y-44270D01*
X50170Y-44270D01*
X50537Y-44270D01*
X50537Y-44337D01*
X50177Y-44337D01*
X49750Y-44337D01*
X49733Y-44319D01*
X49733Y-43711D01*
X49731Y-43607D01*
X49722Y-43539D01*
X49701Y-43493D01*
X49667Y-43452D01*
X49655Y-43439D01*
X49570Y-43355D01*
X49570Y-43702D01*
X49571Y-43861D01*
X49577Y-43968D01*
X49590Y-44039D01*
X49612Y-44088D01*
X49645Y-44129D01*
X49720Y-44209D01*
X49730Y-43866D01*
X49733Y-43711D01*
X49733Y-44319D01*
X49627Y-44210D01*
X49503Y-44084D01*
X49503Y-43660D01*
X49504Y-43237D01*
X49947Y-43237D01*
X50390Y-43237D01*
X50497Y-43346D01*
X50603Y-43456D01*
X50604Y-43896D01*
X50604Y-44337D01*
X50604Y-44337D01*
X50604Y-44337D01*
G37*
G54D11*
X50309Y-40342D02*
X50309Y-40742D01*
X50138Y-40342D02*
X50138Y-40657D01*
X50157Y-40714D01*
X50195Y-40742D01*
X50252Y-40742D01*
X50290Y-40714D01*
X50309Y-40685D01*
X50480Y-40714D02*
X50519Y-40742D01*
X50595Y-40742D01*
X50633Y-40714D01*
X50652Y-40657D01*
X50652Y-40628D01*
X50633Y-40571D01*
X50595Y-40542D01*
X50538Y-40542D01*
X50500Y-40514D01*
X50480Y-40457D01*
X50480Y-40428D01*
X50500Y-40371D01*
X50538Y-40342D01*
X50595Y-40342D01*
X50633Y-40371D01*
X50823Y-40742D02*
X50823Y-40142D01*
X50823Y-40371D02*
X50861Y-40342D01*
X50938Y-40342D01*
X50976Y-40371D01*
X50995Y-40400D01*
X51014Y-40457D01*
X51014Y-40628D01*
X50995Y-40685D01*
X50976Y-40714D01*
X50938Y-40742D01*
X50861Y-40742D01*
X50823Y-40714D01*
X51090Y-40800D02*
X51395Y-40800D01*
X51490Y-40742D02*
X51490Y-40142D01*
X51490Y-40371D02*
X51528Y-40342D01*
X51604Y-40342D01*
X51642Y-40371D01*
X51661Y-40400D01*
X51680Y-40457D01*
X51680Y-40628D01*
X51661Y-40685D01*
X51642Y-40714D01*
X51604Y-40742D01*
X51528Y-40742D01*
X51490Y-40714D01*
X62909Y-40342D02*
X62909Y-40742D01*
X62738Y-40342D02*
X62738Y-40657D01*
X62757Y-40714D01*
X62795Y-40742D01*
X62852Y-40742D01*
X62890Y-40714D01*
X62909Y-40685D01*
X63080Y-40714D02*
X63119Y-40742D01*
X63195Y-40742D01*
X63233Y-40714D01*
X63252Y-40657D01*
X63252Y-40628D01*
X63233Y-40571D01*
X63195Y-40542D01*
X63138Y-40542D01*
X63100Y-40514D01*
X63080Y-40457D01*
X63080Y-40428D01*
X63100Y-40371D01*
X63138Y-40342D01*
X63195Y-40342D01*
X63233Y-40371D01*
X63423Y-40742D02*
X63423Y-40142D01*
X63423Y-40371D02*
X63461Y-40342D01*
X63538Y-40342D01*
X63576Y-40371D01*
X63595Y-40400D01*
X63614Y-40457D01*
X63614Y-40628D01*
X63595Y-40685D01*
X63576Y-40714D01*
X63538Y-40742D01*
X63461Y-40742D01*
X63423Y-40714D01*
X63690Y-40800D02*
X63995Y-40800D01*
X64261Y-40742D02*
X64261Y-40428D01*
X64242Y-40371D01*
X64204Y-40342D01*
X64128Y-40342D01*
X64090Y-40371D01*
X64261Y-40714D02*
X64223Y-40742D01*
X64128Y-40742D01*
X64090Y-40714D01*
X64071Y-40657D01*
X64071Y-40600D01*
X64090Y-40542D01*
X64128Y-40514D01*
X64223Y-40514D01*
X64261Y-40485D01*
M02*
