G04 (created by PCBNEW (2013-05-16 BZR 4016)-stable) date 6/1/2013 11:24:41 AM*
%MOIN*%
G04 Gerber Fmt 3.4, Leading zero omitted, Abs format*
%FSLAX34Y34*%
G01*
G70*
G90*
G04 APERTURE LIST*
%ADD10C,0.00393701*%
%ADD11C,0.06*%
%ADD12C,0.1063*%
%ADD13C,0.0591*%
%ADD14C,0.1181*%
%ADD15R,0.06X0.06*%
%ADD16C,0.01*%
G04 APERTURE END LIST*
G54D10*
G54D11*
X53350Y-41000D03*
X53350Y-40000D03*
X52563Y-40000D03*
X52563Y-41000D03*
G54D12*
X51500Y-42862D03*
X51500Y-38138D03*
G54D13*
X61500Y-39100D03*
X61500Y-40100D03*
X61500Y-40900D03*
X61500Y-41900D03*
G54D14*
X62550Y-37900D03*
X62550Y-43300D03*
G54D15*
X57000Y-39000D03*
G54D11*
X58000Y-39000D03*
X57000Y-40000D03*
X58000Y-40000D03*
X57000Y-41000D03*
X58000Y-41000D03*
X57000Y-42000D03*
X58000Y-42000D03*
G54D15*
X56000Y-37050D03*
G54D11*
X57000Y-37050D03*
X58000Y-37050D03*
X59000Y-37050D03*
G54D15*
X56000Y-43950D03*
G54D11*
X57000Y-43950D03*
X58000Y-43950D03*
X59000Y-43950D03*
G54D16*
X56548Y-41451D02*
X57000Y-41000D01*
X56548Y-42498D02*
X56548Y-41451D01*
X58000Y-43950D02*
X56548Y-42498D01*
X58456Y-39543D02*
X58000Y-40000D01*
X58456Y-36867D02*
X58456Y-39543D01*
X58177Y-36587D02*
X58456Y-36867D01*
X57462Y-36587D02*
X58177Y-36587D01*
X57000Y-37050D02*
X57462Y-36587D01*
X57050Y-42000D02*
X57000Y-42000D01*
X59000Y-43950D02*
X57050Y-42000D01*
X57531Y-40531D02*
X58000Y-41000D01*
X57531Y-37518D02*
X57531Y-40531D01*
X58000Y-37050D02*
X57531Y-37518D01*
X60600Y-41000D02*
X61500Y-41900D01*
X59000Y-41000D02*
X60600Y-41000D01*
X59000Y-37050D02*
X59000Y-41000D01*
X59000Y-41000D02*
X58000Y-42000D01*
X57000Y-39000D02*
X57000Y-39450D01*
X53031Y-40531D02*
X52562Y-41000D01*
X56000Y-40531D02*
X53031Y-40531D01*
X56000Y-43950D02*
X56000Y-40531D01*
X56887Y-39450D02*
X57000Y-39450D01*
X56000Y-40337D02*
X56887Y-39450D01*
X56000Y-40531D02*
X56000Y-40337D01*
G54D10*
G36*
X65175Y-44675D02*
X63390Y-44675D01*
X63390Y-43133D01*
X63390Y-37733D01*
X63262Y-37424D01*
X63026Y-37187D01*
X62717Y-37059D01*
X62383Y-37059D01*
X62074Y-37187D01*
X61837Y-37423D01*
X61709Y-37732D01*
X61709Y-38066D01*
X61837Y-38375D01*
X62073Y-38612D01*
X62382Y-38740D01*
X62716Y-38740D01*
X63025Y-38612D01*
X63262Y-38376D01*
X63390Y-38067D01*
X63390Y-37733D01*
X63390Y-43133D01*
X63262Y-42824D01*
X63026Y-42587D01*
X62717Y-42459D01*
X62383Y-42459D01*
X62074Y-42587D01*
X61837Y-42823D01*
X61709Y-43132D01*
X61709Y-43466D01*
X61837Y-43775D01*
X62073Y-44012D01*
X62382Y-44140D01*
X62716Y-44140D01*
X63025Y-44012D01*
X63262Y-43776D01*
X63390Y-43467D01*
X63390Y-43133D01*
X63390Y-44675D01*
X55950Y-44675D01*
X55950Y-44437D01*
X55950Y-44000D01*
X55950Y-43900D01*
X55950Y-43462D01*
X55887Y-43400D01*
X55650Y-43399D01*
X55558Y-43437D01*
X55488Y-43508D01*
X55450Y-43600D01*
X55449Y-43699D01*
X55450Y-43837D01*
X55512Y-43900D01*
X55950Y-43900D01*
X55950Y-44000D01*
X55512Y-44000D01*
X55450Y-44062D01*
X55449Y-44200D01*
X55450Y-44299D01*
X55488Y-44391D01*
X55558Y-44462D01*
X55650Y-44500D01*
X55887Y-44500D01*
X55950Y-44437D01*
X55950Y-44675D01*
X53900Y-44675D01*
X53900Y-40891D01*
X53816Y-40688D01*
X53661Y-40534D01*
X53580Y-40500D01*
X53661Y-40466D01*
X53815Y-40311D01*
X53899Y-40109D01*
X53900Y-39891D01*
X53816Y-39688D01*
X53661Y-39534D01*
X53459Y-39450D01*
X53241Y-39449D01*
X53038Y-39533D01*
X52956Y-39615D01*
X52874Y-39534D01*
X52672Y-39450D01*
X52454Y-39449D01*
X52281Y-39521D01*
X52281Y-37983D01*
X52162Y-37695D01*
X51943Y-37475D01*
X51656Y-37356D01*
X51345Y-37356D01*
X51057Y-37475D01*
X50837Y-37694D01*
X50718Y-37981D01*
X50718Y-38292D01*
X50837Y-38580D01*
X51056Y-38800D01*
X51343Y-38919D01*
X51654Y-38919D01*
X51942Y-38800D01*
X52162Y-38581D01*
X52281Y-38294D01*
X52281Y-37983D01*
X52281Y-39521D01*
X52251Y-39533D01*
X52097Y-39688D01*
X52013Y-39890D01*
X52012Y-40108D01*
X52096Y-40311D01*
X52251Y-40465D01*
X52326Y-40497D01*
X52275Y-40518D01*
X52247Y-40614D01*
X52563Y-40929D01*
X52878Y-40614D01*
X52850Y-40518D01*
X52795Y-40499D01*
X52874Y-40466D01*
X52956Y-40384D01*
X53038Y-40465D01*
X53119Y-40499D01*
X53038Y-40533D01*
X52884Y-40688D01*
X52840Y-40793D01*
X52633Y-41000D01*
X52840Y-41206D01*
X52883Y-41311D01*
X53038Y-41465D01*
X53240Y-41549D01*
X53458Y-41550D01*
X53661Y-41466D01*
X53815Y-41311D01*
X53899Y-41109D01*
X53900Y-40891D01*
X53900Y-44675D01*
X52878Y-44675D01*
X52878Y-41385D01*
X52563Y-41070D01*
X52492Y-41141D01*
X52492Y-41000D01*
X52177Y-40684D01*
X52081Y-40712D01*
X52008Y-40918D01*
X52019Y-41136D01*
X52081Y-41287D01*
X52177Y-41315D01*
X52492Y-41000D01*
X52492Y-41141D01*
X52247Y-41385D01*
X52275Y-41481D01*
X52481Y-41554D01*
X52699Y-41543D01*
X52850Y-41481D01*
X52878Y-41385D01*
X52878Y-44675D01*
X52281Y-44675D01*
X52281Y-42707D01*
X52162Y-42419D01*
X51943Y-42199D01*
X51656Y-42080D01*
X51345Y-42080D01*
X51057Y-42199D01*
X50837Y-42418D01*
X50718Y-42705D01*
X50718Y-43016D01*
X50837Y-43304D01*
X51056Y-43524D01*
X51343Y-43643D01*
X51654Y-43643D01*
X51942Y-43524D01*
X52162Y-43305D01*
X52281Y-43018D01*
X52281Y-42707D01*
X52281Y-44675D01*
X49325Y-44675D01*
X49325Y-36325D01*
X57325Y-36325D01*
X57250Y-36375D01*
X57121Y-36504D01*
X57109Y-36500D01*
X56891Y-36499D01*
X56688Y-36583D01*
X56550Y-36722D01*
X56550Y-36700D01*
X56512Y-36608D01*
X56441Y-36538D01*
X56349Y-36500D01*
X56250Y-36499D01*
X55650Y-36499D01*
X55558Y-36537D01*
X55488Y-36608D01*
X55450Y-36700D01*
X55449Y-36799D01*
X55449Y-37399D01*
X55487Y-37491D01*
X55558Y-37561D01*
X55650Y-37599D01*
X55749Y-37600D01*
X56349Y-37600D01*
X56441Y-37562D01*
X56511Y-37491D01*
X56549Y-37399D01*
X56549Y-37377D01*
X56688Y-37515D01*
X56890Y-37599D01*
X57108Y-37600D01*
X57231Y-37549D01*
X57231Y-38449D01*
X57112Y-38450D01*
X57050Y-38512D01*
X57050Y-38950D01*
X57057Y-38950D01*
X57057Y-39050D01*
X57050Y-39050D01*
X57050Y-39057D01*
X56950Y-39057D01*
X56950Y-39050D01*
X56950Y-38950D01*
X56950Y-38512D01*
X56887Y-38450D01*
X56749Y-38449D01*
X56650Y-38450D01*
X56558Y-38488D01*
X56487Y-38558D01*
X56449Y-38650D01*
X56450Y-38887D01*
X56512Y-38950D01*
X56950Y-38950D01*
X56950Y-39050D01*
X56512Y-39050D01*
X56450Y-39112D01*
X56449Y-39349D01*
X56487Y-39441D01*
X56558Y-39511D01*
X56650Y-39549D01*
X56672Y-39549D01*
X56534Y-39688D01*
X56450Y-39890D01*
X56449Y-40108D01*
X56533Y-40311D01*
X56688Y-40465D01*
X56769Y-40499D01*
X56688Y-40533D01*
X56534Y-40688D01*
X56450Y-40890D01*
X56449Y-41108D01*
X56454Y-41120D01*
X56336Y-41238D01*
X56271Y-41336D01*
X56248Y-41451D01*
X56248Y-42498D01*
X56271Y-42613D01*
X56336Y-42711D01*
X57025Y-43400D01*
X56891Y-43399D01*
X56688Y-43483D01*
X56549Y-43622D01*
X56549Y-43600D01*
X56511Y-43508D01*
X56441Y-43437D01*
X56349Y-43399D01*
X56112Y-43400D01*
X56050Y-43462D01*
X56050Y-43900D01*
X56057Y-43900D01*
X56057Y-44000D01*
X56050Y-44000D01*
X56050Y-44437D01*
X56112Y-44500D01*
X56349Y-44500D01*
X56441Y-44462D01*
X56511Y-44391D01*
X56549Y-44299D01*
X56549Y-44277D01*
X56688Y-44415D01*
X56890Y-44499D01*
X57108Y-44500D01*
X57311Y-44416D01*
X57465Y-44261D01*
X57499Y-44180D01*
X57533Y-44261D01*
X57688Y-44415D01*
X57890Y-44499D01*
X58108Y-44500D01*
X58311Y-44416D01*
X58465Y-44261D01*
X58499Y-44180D01*
X58533Y-44261D01*
X58688Y-44415D01*
X58890Y-44499D01*
X59108Y-44500D01*
X59311Y-44416D01*
X59465Y-44261D01*
X59549Y-44059D01*
X59550Y-43841D01*
X59466Y-43638D01*
X59311Y-43484D01*
X59109Y-43400D01*
X58891Y-43399D01*
X58879Y-43404D01*
X58024Y-42550D01*
X58108Y-42550D01*
X58311Y-42466D01*
X58465Y-42311D01*
X58549Y-42109D01*
X58550Y-41891D01*
X58545Y-41879D01*
X59124Y-41300D01*
X60475Y-41300D01*
X60958Y-41782D01*
X60954Y-41791D01*
X60954Y-42008D01*
X61037Y-42208D01*
X61190Y-42362D01*
X61391Y-42445D01*
X61608Y-42445D01*
X61808Y-42362D01*
X61962Y-42209D01*
X62045Y-42008D01*
X62045Y-41791D01*
X61962Y-41591D01*
X61809Y-41437D01*
X61718Y-41400D01*
X61808Y-41362D01*
X61962Y-41209D01*
X62045Y-41008D01*
X62045Y-40791D01*
X61962Y-40591D01*
X61871Y-40499D01*
X61962Y-40409D01*
X62045Y-40208D01*
X62045Y-39991D01*
X61962Y-39791D01*
X61809Y-39637D01*
X61718Y-39600D01*
X61808Y-39562D01*
X61962Y-39409D01*
X62045Y-39208D01*
X62045Y-38991D01*
X61962Y-38791D01*
X61809Y-38637D01*
X61608Y-38554D01*
X61391Y-38554D01*
X61191Y-38637D01*
X61037Y-38790D01*
X60954Y-38991D01*
X60954Y-39208D01*
X61037Y-39408D01*
X61190Y-39562D01*
X61281Y-39599D01*
X61191Y-39637D01*
X61037Y-39790D01*
X60954Y-39991D01*
X60954Y-40208D01*
X61037Y-40408D01*
X61128Y-40500D01*
X61037Y-40590D01*
X60954Y-40791D01*
X60954Y-40930D01*
X60812Y-40787D01*
X60714Y-40722D01*
X60600Y-40700D01*
X59300Y-40700D01*
X59300Y-37521D01*
X59311Y-37516D01*
X59465Y-37361D01*
X59549Y-37159D01*
X59550Y-36941D01*
X59466Y-36738D01*
X59311Y-36584D01*
X59109Y-36500D01*
X58891Y-36499D01*
X58688Y-36583D01*
X58642Y-36629D01*
X58389Y-36375D01*
X58313Y-36325D01*
X65175Y-36325D01*
X65175Y-44675D01*
X65175Y-44675D01*
G37*
G54D16*
X65175Y-44675D02*
X63390Y-44675D01*
X63390Y-43133D01*
X63390Y-37733D01*
X63262Y-37424D01*
X63026Y-37187D01*
X62717Y-37059D01*
X62383Y-37059D01*
X62074Y-37187D01*
X61837Y-37423D01*
X61709Y-37732D01*
X61709Y-38066D01*
X61837Y-38375D01*
X62073Y-38612D01*
X62382Y-38740D01*
X62716Y-38740D01*
X63025Y-38612D01*
X63262Y-38376D01*
X63390Y-38067D01*
X63390Y-37733D01*
X63390Y-43133D01*
X63262Y-42824D01*
X63026Y-42587D01*
X62717Y-42459D01*
X62383Y-42459D01*
X62074Y-42587D01*
X61837Y-42823D01*
X61709Y-43132D01*
X61709Y-43466D01*
X61837Y-43775D01*
X62073Y-44012D01*
X62382Y-44140D01*
X62716Y-44140D01*
X63025Y-44012D01*
X63262Y-43776D01*
X63390Y-43467D01*
X63390Y-43133D01*
X63390Y-44675D01*
X55950Y-44675D01*
X55950Y-44437D01*
X55950Y-44000D01*
X55950Y-43900D01*
X55950Y-43462D01*
X55887Y-43400D01*
X55650Y-43399D01*
X55558Y-43437D01*
X55488Y-43508D01*
X55450Y-43600D01*
X55449Y-43699D01*
X55450Y-43837D01*
X55512Y-43900D01*
X55950Y-43900D01*
X55950Y-44000D01*
X55512Y-44000D01*
X55450Y-44062D01*
X55449Y-44200D01*
X55450Y-44299D01*
X55488Y-44391D01*
X55558Y-44462D01*
X55650Y-44500D01*
X55887Y-44500D01*
X55950Y-44437D01*
X55950Y-44675D01*
X53900Y-44675D01*
X53900Y-40891D01*
X53816Y-40688D01*
X53661Y-40534D01*
X53580Y-40500D01*
X53661Y-40466D01*
X53815Y-40311D01*
X53899Y-40109D01*
X53900Y-39891D01*
X53816Y-39688D01*
X53661Y-39534D01*
X53459Y-39450D01*
X53241Y-39449D01*
X53038Y-39533D01*
X52956Y-39615D01*
X52874Y-39534D01*
X52672Y-39450D01*
X52454Y-39449D01*
X52281Y-39521D01*
X52281Y-37983D01*
X52162Y-37695D01*
X51943Y-37475D01*
X51656Y-37356D01*
X51345Y-37356D01*
X51057Y-37475D01*
X50837Y-37694D01*
X50718Y-37981D01*
X50718Y-38292D01*
X50837Y-38580D01*
X51056Y-38800D01*
X51343Y-38919D01*
X51654Y-38919D01*
X51942Y-38800D01*
X52162Y-38581D01*
X52281Y-38294D01*
X52281Y-37983D01*
X52281Y-39521D01*
X52251Y-39533D01*
X52097Y-39688D01*
X52013Y-39890D01*
X52012Y-40108D01*
X52096Y-40311D01*
X52251Y-40465D01*
X52326Y-40497D01*
X52275Y-40518D01*
X52247Y-40614D01*
X52563Y-40929D01*
X52878Y-40614D01*
X52850Y-40518D01*
X52795Y-40499D01*
X52874Y-40466D01*
X52956Y-40384D01*
X53038Y-40465D01*
X53119Y-40499D01*
X53038Y-40533D01*
X52884Y-40688D01*
X52840Y-40793D01*
X52633Y-41000D01*
X52840Y-41206D01*
X52883Y-41311D01*
X53038Y-41465D01*
X53240Y-41549D01*
X53458Y-41550D01*
X53661Y-41466D01*
X53815Y-41311D01*
X53899Y-41109D01*
X53900Y-40891D01*
X53900Y-44675D01*
X52878Y-44675D01*
X52878Y-41385D01*
X52563Y-41070D01*
X52492Y-41141D01*
X52492Y-41000D01*
X52177Y-40684D01*
X52081Y-40712D01*
X52008Y-40918D01*
X52019Y-41136D01*
X52081Y-41287D01*
X52177Y-41315D01*
X52492Y-41000D01*
X52492Y-41141D01*
X52247Y-41385D01*
X52275Y-41481D01*
X52481Y-41554D01*
X52699Y-41543D01*
X52850Y-41481D01*
X52878Y-41385D01*
X52878Y-44675D01*
X52281Y-44675D01*
X52281Y-42707D01*
X52162Y-42419D01*
X51943Y-42199D01*
X51656Y-42080D01*
X51345Y-42080D01*
X51057Y-42199D01*
X50837Y-42418D01*
X50718Y-42705D01*
X50718Y-43016D01*
X50837Y-43304D01*
X51056Y-43524D01*
X51343Y-43643D01*
X51654Y-43643D01*
X51942Y-43524D01*
X52162Y-43305D01*
X52281Y-43018D01*
X52281Y-42707D01*
X52281Y-44675D01*
X49325Y-44675D01*
X49325Y-36325D01*
X57325Y-36325D01*
X57250Y-36375D01*
X57121Y-36504D01*
X57109Y-36500D01*
X56891Y-36499D01*
X56688Y-36583D01*
X56550Y-36722D01*
X56550Y-36700D01*
X56512Y-36608D01*
X56441Y-36538D01*
X56349Y-36500D01*
X56250Y-36499D01*
X55650Y-36499D01*
X55558Y-36537D01*
X55488Y-36608D01*
X55450Y-36700D01*
X55449Y-36799D01*
X55449Y-37399D01*
X55487Y-37491D01*
X55558Y-37561D01*
X55650Y-37599D01*
X55749Y-37600D01*
X56349Y-37600D01*
X56441Y-37562D01*
X56511Y-37491D01*
X56549Y-37399D01*
X56549Y-37377D01*
X56688Y-37515D01*
X56890Y-37599D01*
X57108Y-37600D01*
X57231Y-37549D01*
X57231Y-38449D01*
X57112Y-38450D01*
X57050Y-38512D01*
X57050Y-38950D01*
X57057Y-38950D01*
X57057Y-39050D01*
X57050Y-39050D01*
X57050Y-39057D01*
X56950Y-39057D01*
X56950Y-39050D01*
X56950Y-38950D01*
X56950Y-38512D01*
X56887Y-38450D01*
X56749Y-38449D01*
X56650Y-38450D01*
X56558Y-38488D01*
X56487Y-38558D01*
X56449Y-38650D01*
X56450Y-38887D01*
X56512Y-38950D01*
X56950Y-38950D01*
X56950Y-39050D01*
X56512Y-39050D01*
X56450Y-39112D01*
X56449Y-39349D01*
X56487Y-39441D01*
X56558Y-39511D01*
X56650Y-39549D01*
X56672Y-39549D01*
X56534Y-39688D01*
X56450Y-39890D01*
X56449Y-40108D01*
X56533Y-40311D01*
X56688Y-40465D01*
X56769Y-40499D01*
X56688Y-40533D01*
X56534Y-40688D01*
X56450Y-40890D01*
X56449Y-41108D01*
X56454Y-41120D01*
X56336Y-41238D01*
X56271Y-41336D01*
X56248Y-41451D01*
X56248Y-42498D01*
X56271Y-42613D01*
X56336Y-42711D01*
X57025Y-43400D01*
X56891Y-43399D01*
X56688Y-43483D01*
X56549Y-43622D01*
X56549Y-43600D01*
X56511Y-43508D01*
X56441Y-43437D01*
X56349Y-43399D01*
X56112Y-43400D01*
X56050Y-43462D01*
X56050Y-43900D01*
X56057Y-43900D01*
X56057Y-44000D01*
X56050Y-44000D01*
X56050Y-44437D01*
X56112Y-44500D01*
X56349Y-44500D01*
X56441Y-44462D01*
X56511Y-44391D01*
X56549Y-44299D01*
X56549Y-44277D01*
X56688Y-44415D01*
X56890Y-44499D01*
X57108Y-44500D01*
X57311Y-44416D01*
X57465Y-44261D01*
X57499Y-44180D01*
X57533Y-44261D01*
X57688Y-44415D01*
X57890Y-44499D01*
X58108Y-44500D01*
X58311Y-44416D01*
X58465Y-44261D01*
X58499Y-44180D01*
X58533Y-44261D01*
X58688Y-44415D01*
X58890Y-44499D01*
X59108Y-44500D01*
X59311Y-44416D01*
X59465Y-44261D01*
X59549Y-44059D01*
X59550Y-43841D01*
X59466Y-43638D01*
X59311Y-43484D01*
X59109Y-43400D01*
X58891Y-43399D01*
X58879Y-43404D01*
X58024Y-42550D01*
X58108Y-42550D01*
X58311Y-42466D01*
X58465Y-42311D01*
X58549Y-42109D01*
X58550Y-41891D01*
X58545Y-41879D01*
X59124Y-41300D01*
X60475Y-41300D01*
X60958Y-41782D01*
X60954Y-41791D01*
X60954Y-42008D01*
X61037Y-42208D01*
X61190Y-42362D01*
X61391Y-42445D01*
X61608Y-42445D01*
X61808Y-42362D01*
X61962Y-42209D01*
X62045Y-42008D01*
X62045Y-41791D01*
X61962Y-41591D01*
X61809Y-41437D01*
X61718Y-41400D01*
X61808Y-41362D01*
X61962Y-41209D01*
X62045Y-41008D01*
X62045Y-40791D01*
X61962Y-40591D01*
X61871Y-40499D01*
X61962Y-40409D01*
X62045Y-40208D01*
X62045Y-39991D01*
X61962Y-39791D01*
X61809Y-39637D01*
X61718Y-39600D01*
X61808Y-39562D01*
X61962Y-39409D01*
X62045Y-39208D01*
X62045Y-38991D01*
X61962Y-38791D01*
X61809Y-38637D01*
X61608Y-38554D01*
X61391Y-38554D01*
X61191Y-38637D01*
X61037Y-38790D01*
X60954Y-38991D01*
X60954Y-39208D01*
X61037Y-39408D01*
X61190Y-39562D01*
X61281Y-39599D01*
X61191Y-39637D01*
X61037Y-39790D01*
X60954Y-39991D01*
X60954Y-40208D01*
X61037Y-40408D01*
X61128Y-40500D01*
X61037Y-40590D01*
X60954Y-40791D01*
X60954Y-40930D01*
X60812Y-40787D01*
X60714Y-40722D01*
X60600Y-40700D01*
X59300Y-40700D01*
X59300Y-37521D01*
X59311Y-37516D01*
X59465Y-37361D01*
X59549Y-37159D01*
X59550Y-36941D01*
X59466Y-36738D01*
X59311Y-36584D01*
X59109Y-36500D01*
X58891Y-36499D01*
X58688Y-36583D01*
X58642Y-36629D01*
X58389Y-36375D01*
X58313Y-36325D01*
X65175Y-36325D01*
X65175Y-44675D01*
M02*
